<svg width="20" height="20" viewBox="0 0 20 20" fill="none" xmlns="http://www.w3.org/2000/svg">
<path d="M10.8333 11.5834C11.2475 11.5834 11.5833 11.2476 11.5833 10.8334C11.5833 10.4192 11.2475 10.0834 10.8333 10.0834V11.5834ZM10.8333 18.2501C11.2475 18.2501 11.5833 17.9143 11.5833 17.5001C11.5833 17.0859 11.2475 16.7501 10.8333 16.7501V18.2501ZM18.8921 11.3337C19.1684 11.0251 19.1422 10.5509 18.8336 10.2746C18.525 9.99835 18.0509 10.0245 17.7746 10.3331L18.8921 11.3337ZM15.5257 13.9694L14.9669 13.4691L15.5257 13.9694ZM10.7243 13.9694L11.2831 13.4691L11.2831 13.4691L10.7243 13.9694ZM10.5588 12.6601C10.2825 12.3515 9.80833 12.3253 9.49973 12.6016C9.19113 12.8779 9.16493 13.3521 9.44123 13.6607L10.5588 12.6601ZM10.9167 5.00008C10.9167 6.42682 9.76007 7.58341 8.33333 7.58341V9.08341C10.5885 9.08341 12.4167 7.25524 12.4167 5.00008H10.9167ZM8.33333 7.58341C6.9066 7.58341 5.75 6.42682 5.75 5.00008H4.25C4.25 7.25524 6.07817 9.08341 8.33333 9.08341V7.58341ZM5.75 5.00008C5.75 3.57335 6.9066 2.41675 8.33333 2.41675V0.916748C6.07817 0.916748 4.25 2.74492 4.25 5.00008H5.75ZM8.33333 2.41675C9.76007 2.41675 10.9167 3.57335 10.9167 5.00008H12.4167C12.4167 2.74492 10.5885 0.916748 8.33333 0.916748V2.41675ZM5.83333 11.5834H10.8333V10.0834H5.83333V11.5834ZM10.8333 16.7501H5.83333V18.2501H10.8333V16.7501ZM5.83333 16.7501C4.4066 16.7501 3.25 15.5935 3.25 14.1667H1.75C1.75 16.4219 3.57817 18.2501 5.83333 18.2501V16.7501ZM5.83333 10.0834C3.57817 10.0834 1.75 11.9116 1.75 14.1667H3.25C3.25 12.74 4.4066 11.5834 5.83333 11.5834V10.0834ZM17.7746 10.3331L14.9669 13.4691L16.0845 14.4697L18.8921 11.3337L17.7746 10.3331ZM11.2831 13.4691L10.5588 12.6601L9.44123 13.6607L10.1655 14.4697L11.2831 13.4691ZM14.9669 13.4691C14.3955 14.1074 14.0192 14.525 13.7 14.7933C13.3995 15.0459 13.2439 15.0834 13.125 15.0834V16.5834C13.7379 16.5834 14.2264 16.3103 14.6651 15.9415C15.0852 15.5885 15.5433 15.0741 16.0845 14.4697L14.9669 13.4691ZM10.1655 14.4697C10.7067 15.0741 11.1648 15.5885 11.5849 15.9415C12.0236 16.3103 12.5121 16.5834 13.125 16.5834V15.0834C13.0061 15.0834 12.8505 15.0459 12.55 14.7933C12.2308 14.525 11.8545 14.1074 11.2831 13.4691L10.1655 14.4697Z" fill="#361252"/>
</svg>
