<svg width="16" height="16" viewBox="0 0 16 16" fill="none" xmlns="http://www.w3.org/2000/svg">
<path fill-rule="evenodd" clip-rule="evenodd" d="M4.73269 3.91664C4.73269 2.20418 6.12092 0.815948 7.83339 0.815948C9.54585 0.815948 10.9341 2.20418 10.9341 3.91664V6.52775C10.9341 8.24022 9.54585 9.62845 7.83339 9.62845C6.12092 9.62845 4.73269 8.24022 4.73269 6.52775V3.91664ZM7.83339 1.79512C6.6617 1.79512 5.71186 2.74496 5.71186 3.91664V6.52775C5.71186 7.69944 6.6617 8.64928 7.83339 8.64928C9.00508 8.64928 9.95492 7.69944 9.95492 6.52775V3.91664C9.95492 2.74496 9.00508 1.79512 7.83339 1.79512ZM7.16052 4.58951L6.64657 4.718C6.38426 4.78358 6.11845 4.62409 6.05287 4.36177C5.98729 4.09946 6.14677 3.83365 6.40909 3.76807L6.92304 3.63958C7.52074 3.49015 8.14604 3.49015 8.74374 3.63958L9.25768 3.76807C9.52 3.83365 9.67949 4.09946 9.61391 4.36177C9.54833 4.62409 9.28252 4.78358 9.0202 4.718L8.50626 4.58951C8.06448 4.47907 7.6023 4.47907 7.16052 4.58951ZM7.1625 6.94106L7.00904 6.99221C6.75253 7.07772 6.47527 6.93909 6.38976 6.68257C6.30426 6.42606 6.44289 6.1488 6.6994 6.06329L6.85286 6.01214C7.48933 5.79998 8.17744 5.79998 8.81391 6.01214L8.96737 6.06329C9.22389 6.1488 9.36252 6.42606 9.27701 6.68257C9.19151 6.93909 8.91425 7.07772 8.65773 6.99221L8.50427 6.94106C8.06879 6.7959 7.59798 6.7959 7.1625 6.94106ZM2.61117 6.03817C2.88155 6.03817 3.10075 6.25736 3.10075 6.52775C3.10075 9.14152 5.21962 11.2604 7.83339 11.2604C10.4472 11.2604 12.566 9.14152 12.566 6.52775C12.566 6.25736 12.7852 6.03817 13.0556 6.03817C13.326 6.03817 13.5452 6.25736 13.5452 6.52775C13.5452 9.51738 11.2483 11.9705 8.32297 12.2189V13.6776C8.46426 13.6962 8.60474 13.7229 8.74374 13.7576L9.25768 13.8861C9.52 13.9517 9.67949 14.2175 9.61391 14.4798C9.54833 14.7421 9.28252 14.9016 9.0202 14.8361L8.50626 14.7076C8.28536 14.6523 8.05938 14.6247 7.83339 14.6247C7.6074 14.6247 7.38141 14.6523 7.16052 14.7076L6.64657 14.8361C6.38426 14.9016 6.11845 14.7421 6.05287 14.4798C5.98729 14.2175 6.14677 13.9517 6.40909 13.8861L6.92304 13.7576C7.06203 13.7229 7.20252 13.6962 7.3438 13.6776V12.2189C4.41845 11.9705 2.12158 9.51738 2.12158 6.52775C2.12158 6.25736 2.34078 6.03817 2.61117 6.03817Z" fill="#0B7469"/>
</svg>
