<svg width="27" height="27" viewBox="0 0 27 27" fill="none" xmlns="http://www.w3.org/2000/svg">
<g clip-path="url(#clip0_52_13246)">
<path d="M13.5 0C6.05565 0 0 6.05565 0 13.5C0 20.9444 6.05565 27 13.5 27C20.9444 27 27 20.9433 27 13.5C27 6.0567 20.9444 0 13.5 0ZM13.5 24.9086C7.21011 24.9086 2.09139 19.7909 2.09139 13.5C2.09139 7.20905 7.21011 2.09139 13.5 2.09139C19.7899 2.09139 24.9086 7.20905 24.9086 13.5C24.9086 19.7909 19.7909 24.9086 13.5 24.9086Z" fill="url(#paint0_linear_52_13246)"/>
<path d="M18.7283 12.3602H14.5455V8.17744C14.5455 7.60021 14.0781 7.13171 13.4998 7.13171C12.9215 7.13171 12.4541 7.60021 12.4541 8.17744V12.3602H8.27131C7.69302 12.3602 7.22559 12.8287 7.22559 13.4059C7.22559 13.9832 7.69302 14.4517 8.27131 14.4517H12.4541V18.6345C12.4541 19.2117 12.9215 19.6802 13.4998 19.6802C14.0781 19.6802 14.5455 19.2117 14.5455 18.6345V14.4517H18.7283C19.3066 14.4517 19.774 13.9832 19.774 13.4059C19.774 12.8287 19.3066 12.3602 18.7283 12.3602Z" fill="url(#paint1_linear_52_13246)"/>
</g>
<defs>
<linearGradient id="paint0_linear_52_13246" x1="25.7264" y1="29.337" x2="1.44453" y2="9.45345" gradientUnits="userSpaceOnUse">
<stop stop-color="#0B8174"/>
<stop offset="1" stop-color="#084B49"/>
</linearGradient>
<linearGradient id="paint1_linear_52_13246" x1="19.1821" y1="20.7663" x2="7.89694" y2="11.5253" gradientUnits="userSpaceOnUse">
<stop stop-color="#0B8174"/>
<stop offset="1" stop-color="#084B49"/>
</linearGradient>
<clipPath id="clip0_52_13246">
<rect width="27" height="27" fill="white"/>
</clipPath>
</defs>
</svg>
