<svg width="13" height="16" viewBox="0 0 13 16" fill="none" xmlns="http://www.w3.org/2000/svg">
<path d="M12.5156 6.5C12.5156 6.21523 12.2848 5.98438 12 5.98438C11.7152 5.98438 11.4844 6.21523 11.4844 6.5H12.5156ZM1.51562 6.5C1.51562 6.21523 1.28477 5.98438 1 5.98438C0.715228 5.98438 0.484375 6.21523 0.484375 6.5H1.51562ZM4.99994 14.2498C4.72367 14.3188 4.5557 14.5988 4.62477 14.8751C4.69384 15.1513 4.97379 15.3193 5.25006 15.2502L4.99994 14.2498ZM5.66628 14.6147L5.54123 14.1144L5.66628 14.6147ZM7.33372 14.6147L7.45877 14.1144L7.33372 14.6147ZM7.74994 15.2502C8.02621 15.3193 8.30616 15.1513 8.37523 14.8751C8.4443 14.5988 8.27633 14.3188 8.00006 14.2498L7.74994 15.2502ZM5.3057 6.01084C5.03554 6.10089 4.88953 6.3929 4.97959 6.66305C5.06964 6.93321 5.36165 7.07922 5.6318 6.98916L5.3057 6.01084ZM5.63037 6.44613L5.46732 5.95696L5.63037 6.44613ZM7.36963 6.44613L7.20657 6.93529H7.20657L7.36963 6.44613ZM7.3682 6.98916C7.63835 7.07922 7.93036 6.93321 8.02041 6.66305C8.11047 6.3929 7.96446 6.10089 7.6943 6.01084L7.3682 6.98916ZM4.99994 3.59352C4.72367 3.66259 4.5557 3.94254 4.62477 4.21881C4.69384 4.49508 4.97379 4.66305 5.25006 4.59398L4.99994 3.59352ZM5.66628 3.95843L5.54123 3.4582L5.66628 3.95843ZM7.33372 3.95843L7.45877 3.4582L7.33372 3.95843ZM7.74994 4.59398C8.02621 4.66305 8.30616 4.49508 8.37523 4.21881C8.4443 3.94254 8.27633 3.66259 8.00006 3.59352L7.74994 4.59398ZM6.5 14.512V15.0277V14.512ZM8.73438 3.75V6.5H9.76562V3.75H8.73438ZM4.26562 6.5V3.75H3.23438V6.5H4.26562ZM6.5 8.73438C5.26599 8.73438 4.26562 7.73401 4.26562 6.5H3.23438C3.23438 8.30356 4.69645 9.76562 6.5 9.76562V8.73438ZM8.73438 6.5C8.73438 7.73401 7.73401 8.73438 6.5 8.73438V9.76562C8.30356 9.76562 9.76562 8.30356 9.76562 6.5H8.73438ZM6.5 1.51562C7.73401 1.51562 8.73438 2.51599 8.73438 3.75H9.76562C9.76562 1.94645 8.30356 0.484375 6.5 0.484375V1.51562ZM6.5 0.484375C4.69645 0.484375 3.23438 1.94644 3.23438 3.75H4.26562C4.26562 2.51599 5.26599 1.51562 6.5 1.51562V0.484375ZM11.4844 6.5C11.4844 9.25279 9.2528 11.4844 6.5 11.4844V12.5156C9.82234 12.5156 12.5156 9.82234 12.5156 6.5H11.4844ZM6.5 11.4844C3.74721 11.4844 1.51562 9.25279 1.51562 6.5H0.484375C0.484375 9.82234 3.17766 12.5156 6.5 12.5156V11.4844ZM5.98438 12.6875V14.0625H7.01562V12.6875H5.98438ZM5.25006 15.2502L5.79134 15.1149L5.54123 14.1144L4.99994 14.2498L5.25006 15.2502ZM7.20866 15.1149L7.74994 15.2502L8.00006 14.2498L7.45877 14.1144L7.20866 15.1149ZM5.6318 6.98916L5.79343 6.93529L5.46732 5.95696L5.3057 6.01084L5.6318 6.98916ZM7.20657 6.93529L7.3682 6.98916L7.6943 6.01084L7.53268 5.95696L7.20657 6.93529ZM5.79343 6.93529C6.25207 6.78241 6.74793 6.78241 7.20657 6.93529L7.53268 5.95696C6.86236 5.73352 6.13764 5.73352 5.46732 5.95696L5.79343 6.93529ZM5.25006 4.59398L5.79134 4.45866L5.54123 3.4582L4.99994 3.59352L5.25006 4.59398ZM7.20866 4.45866L7.74994 4.59398L8.00006 3.59352L7.45877 3.4582L7.20866 4.45866ZM5.79134 4.45866C6.25662 4.34234 6.74338 4.34234 7.20866 4.45866L7.45877 3.4582C6.82928 3.30083 6.17072 3.30083 5.54123 3.4582L5.79134 4.45866ZM7.01562 12.6875V12H5.98438V12.6875H7.01562ZM5.79134 15.1149C6.02398 15.0567 6.26199 15.0277 6.5 15.0277V13.9964C6.17799 13.9964 5.85597 14.0358 5.54123 14.1144L5.79134 15.1149ZM6.5 15.0277C6.73801 15.0277 6.97602 15.0567 7.20866 15.1149L7.45877 14.1144C7.14403 14.0358 6.82201 13.9964 6.5 13.9964V15.0277ZM5.98438 14.0625V14.512H7.01562V14.0625H5.98438Z" fill="#FF3B62"/>
</svg>
