<svg width="15" height="15" viewBox="0 0 15 15" fill="none" xmlns="http://www.w3.org/2000/svg">
<path fill-rule="evenodd" clip-rule="evenodd" d="M3.29774 5.44834C4.67412 3.06439 5.36231 1.87241 6.26078 1.47238C7.04446 1.12346 7.93939 1.12346 8.72307 1.47238C9.62154 1.87241 10.3097 3.06438 11.6861 5.44834C13.0625 7.8323 13.7507 9.02428 13.6479 10.0024C13.5582 10.8555 13.1107 11.6306 12.4167 12.1348C11.6211 12.7129 10.2447 12.7129 7.49193 12.7129C4.73917 12.7129 3.36279 12.7129 2.56712 12.1348C1.87311 11.6306 1.42565 10.8555 1.33598 10.0024C1.23317 9.02428 1.92136 7.8323 3.29774 5.44834ZM7.49189 3.78355C7.74265 3.78355 7.94593 3.98683 7.94593 4.23759V7.86986C7.94593 8.12061 7.74265 8.32389 7.49189 8.32389C7.24114 8.32389 7.03786 8.12061 7.03786 7.86986V4.23759C7.03786 3.98683 7.24114 3.78355 7.49189 3.78355ZM7.49189 10.2914C7.82623 10.2914 8.09727 10.0203 8.09727 9.68599C8.09727 9.35165 7.82623 9.08061 7.49189 9.08061C7.15755 9.08061 6.88651 9.35165 6.88651 9.68599C6.88651 10.0203 7.15755 10.2914 7.49189 10.2914Z" fill="#E41717"/>
</svg>
