<svg width="17" height="16" viewBox="0 0 17 16" fill="none" xmlns="http://www.w3.org/2000/svg">
<path fill-rule="evenodd" clip-rule="evenodd" d="M5.55471 3.91661C5.55471 2.20415 6.94294 0.815918 8.65541 0.815918C10.3679 0.815918 11.7561 2.20415 11.7561 3.91661V6.52772C11.7561 8.24019 10.3679 9.62842 8.65541 9.62842C6.94294 9.62842 5.55471 8.24019 5.55471 6.52772V3.91661ZM8.65541 1.79508C7.48372 1.79508 6.53388 2.74493 6.53388 3.91661V6.52772C6.53388 7.69941 7.48372 8.64925 8.65541 8.64925C9.8271 8.64925 10.7769 7.69941 10.7769 6.52772V3.91661C10.7769 2.74493 9.8271 1.79508 8.65541 1.79508ZM7.98254 4.58948L7.4686 4.71797C7.20628 4.78355 6.94047 4.62406 6.87489 4.36174C6.80931 4.09943 6.9688 3.83362 7.23111 3.76804L7.74506 3.63955C8.34276 3.49012 8.96806 3.49012 9.56576 3.63955L10.0797 3.76804C10.342 3.83361 10.5015 4.09943 10.4359 4.36174C10.3704 4.62406 10.1045 4.78355 9.84222 4.71797L9.32828 4.58948C8.8865 4.47904 8.42432 4.47904 7.98254 4.58948ZM7.98452 6.94103L7.83106 6.99218C7.57455 7.07769 7.29729 6.93906 7.21178 6.68254C7.12628 6.42603 7.26491 6.14877 7.52142 6.06326L7.67488 6.01211C8.31135 5.79995 8.99947 5.79995 9.63593 6.01211L9.7894 6.06326C10.0459 6.14877 10.1845 6.42603 10.099 6.68254C10.0135 6.93906 9.73627 7.07769 9.47976 6.99218L9.32629 6.94103C8.89082 6.79587 8.42 6.79587 7.98452 6.94103ZM3.43319 6.03814C3.70358 6.03814 3.92277 6.25733 3.92277 6.52772C3.92277 9.14149 6.04164 11.2604 8.65541 11.2604C11.2692 11.2604 13.388 9.14149 13.388 6.52772C13.388 6.25733 13.6072 6.03814 13.8776 6.03814C14.148 6.03814 14.3672 6.25733 14.3672 6.52772C14.3672 9.51735 12.0704 11.9705 9.14499 12.2188V13.6776C9.28628 13.6962 9.42677 13.7229 9.56576 13.7576L10.0797 13.8861C10.342 13.9517 10.5015 14.2175 10.4359 14.4798C10.3704 14.7421 10.1045 14.9016 9.84222 14.836L9.32828 14.7075C9.10739 14.6523 8.8814 14.6247 8.65541 14.6247C8.42942 14.6247 8.20343 14.6523 7.98254 14.7075L7.4686 14.836C7.20628 14.9016 6.94047 14.7421 6.87489 14.4798C6.80931 14.2175 6.9688 13.9517 7.23111 13.8861L7.74506 13.7576C7.88405 13.7229 8.02454 13.6962 8.16583 13.6776V12.2188C5.24047 11.9705 2.9436 9.51735 2.9436 6.52772C2.9436 6.25733 3.1628 6.03814 3.43319 6.03814Z" fill="#F6EFFF"/>
</svg>
