<svg width="30" height="30" viewBox="0 0 30 30" fill="none" xmlns="http://www.w3.org/2000/svg">
<g clip-path="url(#clip0_407_7086)">
<path d="M15.0001 0.555664C7.03496 0.555664 0.555664 7.03496 0.555664 15.0001C0.555664 22.9653 7.03496 29.4446 15.0001 29.4446C22.9653 29.4446 29.4446 22.9641 29.4446 15.0001C29.4446 7.03609 22.9653 0.555664 15.0001 0.555664ZM15.0001 27.2069C8.27018 27.2069 2.79337 21.7312 2.79337 15.0001C2.79337 8.26905 8.27018 2.79337 15.0001 2.79337C21.73 2.79337 27.2069 8.26905 27.2069 15.0001C27.2069 21.7312 21.7312 27.2069 15.0001 27.2069Z" fill="white"/>
<path d="M20.5946 13.7806H16.1192V9.30516C16.1192 8.68755 15.619 8.18628 15.0003 8.18628C14.3815 8.18628 13.8814 8.68755 13.8814 9.30516V13.7806H9.40599C8.78725 13.7806 8.28711 14.2818 8.28711 14.8994C8.28711 15.5171 8.78725 16.0183 9.40599 16.0183H13.8814V20.4937C13.8814 21.1113 14.3815 21.6126 15.0003 21.6126C15.619 21.6126 16.1192 21.1113 16.1192 20.4937V16.0183H20.5946C21.2133 16.0183 21.7134 15.5171 21.7134 14.8994C21.7134 14.2818 21.2133 13.7806 20.5946 13.7806Z" fill="white"/>
</g>
<defs>
<clipPath id="clip0_407_7086">
<rect width="28.8889" height="28.8889" fill="white" transform="translate(0.555664 0.555664)"/>
</clipPath>
</defs>
</svg>
