<svg width="11" height="11" viewBox="0 0 11 11" fill="none" xmlns="http://www.w3.org/2000/svg">
<path fill-rule="evenodd" clip-rule="evenodd" d="M2.32453 4.12508C3.36659 2.32018 3.88762 1.41773 4.56785 1.11487C5.16118 0.850706 5.83873 0.850706 6.43206 1.11487C7.11229 1.41773 7.63332 2.32018 8.67538 4.12508C9.71744 5.92998 10.2385 6.83243 10.1606 7.57296C10.0928 8.21888 9.75397 8.80566 9.22853 9.18741C8.62613 9.62508 7.58407 9.62508 5.49996 9.62508C3.41584 9.62508 2.37378 9.62508 1.77138 9.18741C1.24594 8.80566 0.907162 8.21888 0.839273 7.57296C0.76144 6.83243 1.28247 5.92998 2.32453 4.12508ZM5.49993 2.86466C5.68978 2.86466 5.84368 3.01857 5.84368 3.20841V5.95842C5.84368 6.14826 5.68978 6.30217 5.49993 6.30217C5.31008 6.30217 5.15618 6.14826 5.15618 5.95842V3.20841C5.15618 3.01857 5.31008 2.86466 5.49993 2.86466ZM5.49993 7.79175C5.75306 7.79175 5.95826 7.58655 5.95826 7.33342C5.95826 7.08028 5.75306 6.87508 5.49993 6.87508C5.2468 6.87508 5.0416 7.08028 5.0416 7.33342C5.0416 7.58655 5.2468 7.79175 5.49993 7.79175Z" fill="#F6A50B"/>
</svg>
