<svg width="23" height="23" viewBox="0 0 23 23" fill="none" xmlns="http://www.w3.org/2000/svg">
<path d="M7.75863 20.0202L7.49153 20.4524L7.75863 20.0202ZM7.36703 19.7957L7.55409 19.3233L7.36703 19.7957ZM6.56848 19.8122L6.69596 20.3041L6.56848 19.8122ZM6.94036 19.7312L6.97951 20.2378L6.94036 19.7312ZM3.21054 16.4543L2.7187 16.3268L3.21054 16.4543ZM3.29154 16.0821L3.79814 16.121L3.29154 16.0821ZM3.00186 15.2646L2.57031 15.5328L3.00186 15.2646ZM3.22634 15.6542L2.75431 15.8422L3.22634 15.6542ZM2.83027 18.6966L3.32815 18.5953H3.32815L2.83027 18.6966ZM4.3262 20.1925L4.42753 19.6946L4.3262 20.1925ZM7.71758 12.7724C7.43697 12.7724 7.20949 12.9999 7.20949 13.2805C7.20949 13.5611 7.43697 13.7886 7.71758 13.7886V12.7724ZM15.3842 13.7886C15.6649 13.7886 15.8923 13.5611 15.8923 13.2805C15.8923 12.9999 15.6649 12.7724 15.3842 12.7724V13.7886ZM7.71758 8.93905C7.43697 8.93905 7.20949 9.16653 7.20949 9.44714C7.20949 9.72775 7.43697 9.95523 7.71758 9.95523V8.93905ZM15.3842 9.95523C15.6649 9.95523 15.8923 9.72775 15.8923 9.44714C15.8923 9.16653 15.6649 8.93905 15.3842 8.93905V9.95523ZM5.10553 5.08292C8.64964 1.53881 14.3958 1.53881 17.9399 5.08292L18.6584 4.36437C14.7175 0.423421 8.32793 0.423421 4.38699 4.36437L5.10553 5.08292ZM17.9399 5.08292C21.484 8.62702 21.484 14.3731 17.9399 17.9172L18.6584 18.6358C22.5994 14.6948 22.5994 8.30531 18.6584 4.36437L17.9399 5.08292ZM3.4334 14.9964C2.35726 13.2648 2.22749 11.3412 2.64624 9.55947C3.06674 7.77024 4.03536 6.15309 5.10553 5.08292L4.38699 4.36437C3.18745 5.5639 2.12214 7.34785 1.65701 9.32698C1.19012 11.3136 1.32299 13.5257 2.57031 15.5328L3.4334 14.9964ZM17.9399 17.9172C16.9176 18.9395 15.3026 19.9075 13.4994 20.3389C11.7033 20.7686 9.75811 20.6586 8.02573 19.588L7.49153 20.4524C9.50606 21.6974 11.7427 21.804 13.7358 21.3272C15.7219 20.8521 17.5037 19.7905 18.6584 18.6358L17.9399 17.9172ZM8.02573 19.588C7.84048 19.4735 7.68624 19.3756 7.55409 19.3233L7.17996 20.2681C7.17985 20.2681 7.18126 20.2686 7.18448 20.2701C7.18774 20.2716 7.19253 20.2739 7.19919 20.2774C7.21291 20.2844 7.23176 20.2948 7.2584 20.3103C7.31334 20.3424 7.38493 20.3865 7.49153 20.4524L8.02573 19.588ZM6.69596 20.3041C6.90837 20.249 6.95102 20.24 6.97951 20.2378L6.90122 19.2247C6.76063 19.2355 6.61171 19.2762 6.441 19.3204L6.69596 20.3041ZM7.55409 19.3233C7.33155 19.2352 7.13987 19.2062 6.90122 19.2247L6.97951 20.2378C7.06411 20.2313 7.10106 20.2369 7.17996 20.2681L7.55409 19.3233ZM3.70238 16.5818C3.74664 16.411 3.78732 16.262 3.79814 16.121L2.78494 16.0432C2.78274 16.0718 2.77376 16.1144 2.7187 16.3268L3.70238 16.5818ZM2.57031 15.5328C2.63611 15.6387 2.68018 15.7097 2.71212 15.7642C2.7276 15.7906 2.73793 15.8093 2.74499 15.8229C2.74841 15.8295 2.75073 15.8343 2.75224 15.8375C2.75374 15.8408 2.75432 15.8422 2.75431 15.8422L3.69837 15.4662C3.64563 15.3338 3.54771 15.1804 3.4334 14.9964L2.57031 15.5328ZM3.79814 16.121C3.81647 15.882 3.78702 15.6888 3.69837 15.4662L2.75431 15.8422C2.78561 15.9208 2.79141 15.9588 2.78494 16.0432L3.79814 16.121ZM2.7187 16.3268C2.5643 16.9225 2.4418 17.3941 2.37082 17.7705C2.30028 18.1445 2.26817 18.4824 2.33238 18.7979L3.32815 18.5953C3.304 18.4766 3.30581 18.296 3.3694 17.9588C3.43254 17.624 3.54435 17.1915 3.70238 16.5818L2.7187 16.3268ZM6.441 19.3204C5.83132 19.4784 5.39882 19.5902 5.06399 19.6534C4.72681 19.717 4.54619 19.7188 4.42753 19.6946L4.22488 20.6904C4.54041 20.7546 4.87824 20.7225 5.2523 20.652C5.62871 20.581 6.10026 20.4585 6.69596 20.3041L6.441 19.3204ZM2.33238 18.7979C2.52641 19.7513 3.2715 20.4964 4.22488 20.6904L4.42753 19.6946C3.8737 19.5819 3.44086 19.1491 3.32815 18.5953L2.33238 18.7979ZM7.71758 13.7886H15.3842V12.7724H7.71758V13.7886ZM7.71758 9.95523H15.3842V8.93905H7.71758V9.95523Z" fill="#473A88"/>
</svg>
