<svg width="20" height="20" viewBox="0 0 20 20" fill="none" xmlns="http://www.w3.org/2000/svg">
<path d="M9.99967 13.3333C10.4417 13.3333 10.8656 13.5088 11.1782 13.8214C11.4907 14.134 11.6663 14.5579 11.6663 14.9999C11.6663 15.4419 11.4907 15.8659 11.1782 16.1784C10.8656 16.491 10.4417 16.6666 9.99967 16.6666C9.55765 16.6666 9.13372 16.491 8.82116 16.1784C8.5086 15.8659 8.33301 15.4419 8.33301 14.9999C8.33301 14.5579 8.5086 14.134 8.82116 13.8214C9.13372 13.5088 9.55765 13.3333 9.99967 13.3333ZM9.99967 8.33325C10.4417 8.33325 10.8656 8.50885 11.1782 8.82141C11.4907 9.13397 11.6663 9.55789 11.6663 9.99992C11.6663 10.4419 11.4907 10.8659 11.1782 11.1784C10.8656 11.491 10.4417 11.6666 9.99967 11.6666C9.55765 11.6666 9.13372 11.491 8.82116 11.1784C8.5086 10.8659 8.33301 10.4419 8.33301 9.99992C8.33301 9.55789 8.5086 9.13397 8.82116 8.82141C9.13372 8.50885 9.55765 8.33325 9.99967 8.33325ZM9.99967 3.33325C10.4417 3.33325 10.8656 3.50885 11.1782 3.82141C11.4907 4.13397 11.6663 4.55789 11.6663 4.99992C11.6663 5.44195 11.4907 5.86587 11.1782 6.17843C10.8656 6.49099 10.4417 6.66659 9.99967 6.66659C9.55765 6.66659 9.13372 6.49099 8.82116 6.17843C8.5086 5.86587 8.33301 5.44195 8.33301 4.99992C8.33301 4.55789 8.5086 4.13397 8.82116 3.82141C9.13372 3.50885 9.55765 3.33325 9.99967 3.33325Z" fill="white"/>
</svg>
