<svg width="14" height="14" viewBox="0 0 14 14" fill="none" xmlns="http://www.w3.org/2000/svg">
<path d="M10.2355 3.45197C10.1347 3.3509 9.99775 3.29409 9.85497 3.29409C9.71218 3.29409 9.57526 3.3509 9.47442 3.45197L6.83485 6.08614L4.19529 3.44658C4.09444 3.3455 3.95753 3.2887 3.81474 3.2887C3.67196 3.2887 3.53504 3.3455 3.43419 3.44658C3.22368 3.65709 3.22368 3.99716 3.43419 4.20768L6.07375 6.84724L3.43419 9.4868C3.22368 9.69731 3.22368 10.0374 3.43419 10.2479C3.64471 10.4584 3.98478 10.4584 4.19529 10.2479L6.83485 7.60834L9.47442 10.2479C9.68493 10.4584 10.025 10.4584 10.2355 10.2479C10.446 10.0374 10.446 9.69731 10.2355 9.4868L7.59595 6.84724L10.2355 4.20768C10.4406 4.00256 10.4406 3.65709 10.2355 3.45197Z" fill="white" fill-opacity="0.7"/>
<path d="M9.85497 3.22064C10.0173 3.22064 10.1729 3.28521 10.2875 3.40009C10.5213 3.6339 10.5212 4.02583 10.2875 4.25962L7.69983 6.84724L10.2875 9.43486C10.5267 9.67406 10.5267 10.0606 10.2875 10.2998C10.0483 10.539 9.66168 10.539 9.42248 10.2998L6.83485 7.71221L4.24723 10.2998C4.00803 10.539 3.62146 10.539 3.38225 10.2998C3.14305 10.0606 3.14305 9.67406 3.38225 9.43486L5.96988 6.84724L3.38225 4.25962C3.14305 4.02041 3.14305 3.63384 3.38225 3.39464L3.43419 3.44657L3.3822 3.3947C3.49683 3.27981 3.65245 3.21524 3.81474 3.21524C3.97703 3.21524 4.13264 3.2798 4.24727 3.39468L4.24723 3.39464L4.19529 3.44658L4.24729 3.3947L9.85497 3.22064ZM9.85497 3.22064C9.69271 3.22064 9.53712 3.28518 9.4225 3.40001M9.85497 3.22064L9.4225 3.40001M9.4225 3.40001C9.42247 3.40004 9.42244 3.40007 9.42242 3.40009L9.47442 3.45197L9.42253 3.39998L9.4225 3.40001ZM6.83491 5.98231L6.78297 6.03414L6.83485 6.08614L6.88679 6.0342L6.83491 5.98231ZM6.07375 6.84724L6.02182 6.7953V6.89918L6.07375 6.84724Z" stroke="white" stroke-opacity="0.7" stroke-width="0.146906"/>
</svg>
