<svg width="40" height="41" viewBox="0 0 40 41" fill="none" xmlns="http://www.w3.org/2000/svg">
<path d="M14.3873 5.90036L13.5569 4.9661V4.9661L14.3873 5.90036ZM25.6127 5.90036L26.4432 4.9661V4.9661L25.6127 5.90036ZM25.2532 5.58073L24.4227 6.51499V6.51499L25.2532 5.58073ZM14.7469 5.58073L15.5774 6.51499V6.51499L14.7469 5.58073ZM6.7685 35.9864L7.50323 34.9752L6.7685 35.9864ZM4.9249 34.1428L5.93617 33.4081L4.9249 34.1428ZM35.0752 34.1428L34.0639 33.4081L35.0752 34.1428ZM33.2316 35.9864L32.4969 34.9752L33.2316 35.9864ZM35.4167 14.2195V22.578H37.9167V14.2195H35.4167ZM21.6667 36.328H18.3334V38.828H21.6667V36.328ZM4.58337 22.578V14.2195H2.08337V22.578H4.58337ZM24.4227 6.51499L24.7823 6.83463L26.4432 4.9661L26.0836 4.64647L24.4227 6.51499ZM15.2178 6.83463L15.5774 6.51499L13.9165 4.64646L13.5569 4.9661L15.2178 6.83463ZM9.97493 8.82796C11.9077 8.82796 13.7732 8.11868 15.2178 6.83463L13.5569 4.9661C12.57 5.84337 11.2954 6.32796 9.97493 6.32796V8.82796ZM24.7823 6.83463C26.2268 8.11868 28.0924 8.82796 30.0252 8.82796V6.32796C28.7047 6.32796 27.4301 5.84337 26.4432 4.9661L24.7823 6.83463ZM26.0836 4.64647C22.6142 1.56251 17.3859 1.56251 13.9165 4.64647L15.5774 6.51499C18.0996 4.273 21.9005 4.273 24.4227 6.51499L26.0836 4.64647ZM18.3334 36.328C15.1808 36.328 12.9167 36.3262 11.1634 36.1363C9.4336 35.9489 8.3499 35.5903 7.50323 34.9752L6.03377 36.9977C7.37764 37.9741 8.95161 38.4113 10.8942 38.6217C12.8133 38.8297 15.2364 38.828 18.3334 38.828V36.328ZM2.08337 22.578C2.08337 25.6749 2.08166 28.098 2.28959 30.0172C2.50005 31.9597 2.93725 33.5337 3.91363 34.8776L5.93617 33.4081C5.32103 32.5614 4.96246 31.4777 4.77504 29.7479C4.58509 27.9946 4.58337 25.7306 4.58337 22.578H2.08337ZM7.50323 34.9752C6.90189 34.5383 6.37307 34.0094 5.93617 33.4081L3.91363 34.8776C4.50472 35.6911 5.22019 36.4066 6.03377 36.9977L7.50323 34.9752ZM35.4167 22.578C35.4167 25.7306 35.415 27.9946 35.225 29.7479C35.0376 31.4777 34.6791 32.5614 34.0639 33.4081L36.0865 34.8776C37.0628 33.5337 37.5 31.9597 37.7105 30.0172C37.9184 28.098 37.9167 25.6749 37.9167 22.578H35.4167ZM21.6667 38.828C24.7636 38.828 27.1867 38.8297 29.1059 38.6217C31.0485 38.4113 32.6224 37.9741 33.9663 36.9977L32.4969 34.9752C31.6502 35.5903 30.5665 35.9489 28.8366 36.1363C27.0834 36.3262 24.8193 36.328 21.6667 36.328V38.828ZM34.0639 33.4081C33.627 34.0094 33.0982 34.5383 32.4969 34.9752L33.9663 36.9977C34.7799 36.4066 35.4954 35.6911 36.0865 34.8776L34.0639 33.4081ZM37.9167 14.2195C37.9167 9.86113 34.3835 6.32796 30.0252 6.32796V8.82796C33.0028 8.82796 35.4167 11.2418 35.4167 14.2195H37.9167ZM4.58337 14.2195C4.58337 11.2418 6.99725 8.82796 9.97493 8.82796V6.32796C5.61654 6.32796 2.08337 9.86113 2.08337 14.2195H4.58337ZM12.0834 22.578C12.0834 26.9502 15.6278 30.4946 20 30.4946V27.9946C17.0085 27.9946 14.5834 25.5695 14.5834 22.578H12.0834ZM20 30.4946C24.3723 30.4946 27.9167 26.9502 27.9167 22.578H25.4167C25.4167 25.5695 22.9916 27.9946 20 27.9946V30.4946ZM27.9167 22.578C27.9167 18.2057 24.3723 14.6613 20 14.6613V17.1613C22.9916 17.1613 25.4167 19.5864 25.4167 22.578H27.9167ZM20 14.6613C15.6278 14.6613 12.0834 18.2057 12.0834 22.578H14.5834C14.5834 19.5864 17.0085 17.1613 20 17.1613V14.6613Z" fill="#2D264B"/>
<path d="M28.3335 14.2443C28.3335 15.1648 29.0797 15.911 30.0002 15.911C30.9206 15.911 31.6668 15.1648 31.6668 14.2443C31.6668 13.3238 30.9206 12.5776 30.0002 12.5776C29.0797 12.5776 28.3335 13.3238 28.3335 14.2443Z" fill="#2D264B"/>
</svg>
