<svg width="40" height="40" viewBox="0 0 40 40" fill="none" xmlns="http://www.w3.org/2000/svg">
<g clip-path="url(#clip0_7180_154518)">
<path d="M1.3172 35.7723C1.75623 35.7723 2.16924 35.5349 2.38712 35.1365L2.42127 35.0747C6.06842 28.4877 13.018 24.3902 20.5562 24.3902H22.8619V31.3007C22.8619 31.7902 23.1562 32.2325 23.6066 32.4243C24.0538 32.6129 24.5806 32.5186 24.9302 32.1755L38.7513 18.7609C38.9887 18.5317 39.1221 18.2162 39.1221 17.8861C39.1221 17.556 38.9887 17.2406 38.7513 17.0113L24.9302 3.5967C24.579 3.25523 24.0538 3.15767 23.6066 3.34792C23.1562 3.53979 22.8619 3.98206 22.8619 4.47149V11.3853C10.2717 11.6032 0.0976906 21.9121 0.0976906 34.5528C0.0976906 35.1105 0.474926 35.5967 1.01476 35.7349C1.11558 35.7609 1.21639 35.7723 1.3172 35.7723ZM24.0814 21.9512H20.5562C13.766 21.9512 7.40338 24.9251 3.05379 29.9365C5.15785 20.7186 13.4229 13.8211 23.2684 13.8211H24.0814C24.7546 13.8211 25.3009 13.2747 25.3009 12.6016V7.35442L36.1513 17.8861L25.3009 28.4178V23.1707C25.3009 22.4975 24.7546 21.9512 24.0814 21.9512Z" fill="#361252"/>
</g>
<defs>
<clipPath id="clip0_7180_154518">
<rect width="39.0244" height="39.0244" fill="white" transform="translate(0.0976562)"/>
</clipPath>
</defs>
</svg>
