<svg width="54" height="54" viewBox="0 0 54 54" fill="none" xmlns="http://www.w3.org/2000/svg">
<circle cx="26.7895" cy="26.7895" r="26.7895" fill="url(#paint0_linear_66_4627)"/>
<path fill-rule="evenodd" clip-rule="evenodd" d="M21.4577 20.9999C21.4577 17.9393 23.9388 15.4583 26.9993 15.4583C30.0599 15.4583 32.541 17.9393 32.541 20.9999V25.6666C32.541 28.7272 30.0599 31.2083 26.9993 31.2083C23.9388 31.2083 21.4577 28.7272 21.4577 25.6666V20.9999ZM26.9993 17.2083C24.9053 17.2083 23.2077 18.9058 23.2077 20.9999V25.6666C23.2077 27.7607 24.9053 29.4583 26.9993 29.4583C29.0934 29.4583 30.791 27.7607 30.791 25.6666V20.9999C30.791 18.9058 29.0934 17.2083 26.9993 17.2083ZM25.7968 22.2025L24.8782 22.4321C24.4094 22.5493 23.9343 22.2643 23.8171 21.7955C23.6999 21.3267 23.985 20.8516 24.4538 20.7344L25.3723 20.5047C26.4406 20.2377 27.5581 20.2377 28.6264 20.5047L29.5449 20.7344C30.0137 20.8516 30.2988 21.3267 30.1816 21.7955C30.0644 22.2643 29.5893 22.5493 29.1205 22.4321L28.2019 22.2025C27.4124 22.0051 26.5863 22.0051 25.7968 22.2025ZM25.8003 26.4053L25.526 26.4967C25.0676 26.6495 24.5721 26.4017 24.4193 25.9433C24.2664 25.4848 24.5142 24.9893 24.9727 24.8365L25.2469 24.7451C26.3844 24.3659 27.6143 24.3659 28.7518 24.7451L29.026 24.8365C29.4845 24.9893 29.7323 25.4848 29.5794 25.9433C29.4266 26.4017 28.9311 26.6495 28.4727 26.4967L28.1984 26.4053C27.4201 26.1458 26.5786 26.1458 25.8003 26.4053ZM17.666 24.7916C18.1493 24.7916 18.541 25.1833 18.541 25.6666C18.541 30.338 22.3279 34.1249 26.9993 34.1249C31.6708 34.1249 35.4577 30.338 35.4577 25.6666C35.4577 25.1833 35.8494 24.7916 36.3327 24.7916C36.8159 24.7916 37.2077 25.1833 37.2077 25.6666C37.2077 31.0097 33.1027 35.3941 27.8743 35.8379V38.4451C28.1269 38.4783 28.3779 38.526 28.6264 38.5881L29.5449 38.8177C30.0137 38.9349 30.2988 39.41 30.1816 39.8788C30.0644 40.3476 29.5893 40.6327 29.1205 40.5155L28.2019 40.2858C27.8071 40.1871 27.4032 40.1378 26.9993 40.1378C26.5955 40.1378 26.1916 40.1871 25.7968 40.2858L24.8782 40.5155C24.4094 40.6327 23.9343 40.3476 23.8171 39.8788C23.6999 39.41 23.985 38.9349 24.4538 38.8177L25.3723 38.5881C25.6208 38.526 25.8718 38.4783 26.1243 38.4451V35.8379C20.896 35.3941 16.791 31.0097 16.791 25.6666C16.791 25.1833 17.1828 24.7916 17.666 24.7916Z" fill="white"/>
<defs>
<linearGradient id="paint0_linear_66_4627" x1="26.7895" y1="0" x2="26.7895" y2="53.579" gradientUnits="userSpaceOnUse">
<stop stop-color="#8274CF"/>
<stop offset="1" stop-color="#2C235C"/>
</linearGradient>
</defs>
</svg>
