<svg width="64" height="64" viewBox="0 0 64 64" fill="none" xmlns="http://www.w3.org/2000/svg">
<circle cx="32" cy="32" r="32" fill="url(#paint0_linear_52_13602)"/>
<path fill-rule="evenodd" clip-rule="evenodd" d="M25.2709 23.5C25.2709 19.7836 28.2837 16.7708 32.0001 16.7708C35.7165 16.7708 38.7292 19.7836 38.7292 23.5V29.1666C38.7292 32.8831 35.7165 35.8958 32.0001 35.8958C28.2837 35.8958 25.2709 32.8831 25.2709 29.1666V23.5ZM32.0001 18.8958C29.4573 18.8958 27.3959 20.9572 27.3959 23.5V29.1666C27.3959 31.7095 29.4573 33.7708 32.0001 33.7708C34.5429 33.7708 36.6042 31.7095 36.6042 29.1666V23.5C36.6042 20.9572 34.5429 18.8958 32.0001 18.8958ZM30.5398 24.9602L29.4244 25.2391C28.8552 25.3814 28.2783 25.0353 28.136 24.466C27.9937 23.8967 28.3398 23.3199 28.9091 23.1775L30.0244 22.8987C31.3216 22.5744 32.6786 22.5744 33.9757 22.8987L35.0911 23.1775C35.6604 23.3199 36.0065 23.8967 35.8642 24.466C35.7219 25.0353 35.145 25.3814 34.5757 25.2391L33.4603 24.9602C32.5016 24.7206 31.4986 24.7206 30.5398 24.9602ZM30.5441 30.0636L30.2111 30.1746C29.6544 30.3602 29.0527 30.0593 28.8671 29.5026C28.6815 28.9459 28.9824 28.3442 29.5391 28.1587L29.8721 28.0477C31.2534 27.5872 32.7468 27.5872 34.128 28.0477L34.4611 28.1587C35.0178 28.3442 35.3186 28.9459 35.1331 29.5026C34.9475 30.0593 34.3458 30.3602 33.7891 30.1746L33.456 30.0636C32.511 29.7486 31.4892 29.7486 30.5441 30.0636ZM20.6667 28.1041C21.2536 28.1041 21.7292 28.5798 21.7292 29.1666C21.7292 34.8391 26.3277 39.4375 32.0001 39.4375C37.6725 39.4375 42.2709 34.8391 42.2709 29.1666C42.2709 28.5798 42.7466 28.1041 43.3334 28.1041C43.9202 28.1041 44.3959 28.5798 44.3959 29.1666C44.3959 35.6548 39.4112 40.9786 33.0626 41.5176V44.6834C33.3692 44.7237 33.6741 44.7816 33.9757 44.857L35.0911 45.1359C35.6604 45.2782 36.0065 45.8551 35.8642 46.4243C35.7219 46.9936 35.145 47.3397 34.5757 47.1974L33.4603 46.9186C32.981 46.7987 32.4905 46.7388 32.0001 46.7388C31.5096 46.7388 31.0192 46.7987 30.5398 46.9186L29.4244 47.1974C28.8552 47.3397 28.2783 46.9936 28.136 46.4243C27.9937 45.8551 28.3398 45.2782 28.9091 45.1359L30.0244 44.857C30.3261 44.7816 30.631 44.7237 30.9376 44.6834V41.5176C24.5889 40.9786 19.6042 35.6548 19.6042 29.1666C19.6042 28.5798 20.0799 28.1041 20.6667 28.1041Z" fill="white"/>
<defs>
<linearGradient id="paint0_linear_52_13602" x1="60.9811" y1="69.5396" x2="3.42408" y2="22.4082" gradientUnits="userSpaceOnUse">
<stop stop-color="#0B8174"/>
<stop offset="1" stop-color="#084B49"/>
</linearGradient>
</defs>
</svg>
