<svg width="24" height="24" viewBox="0 0 24 24" fill="none" xmlns="http://www.w3.org/2000/svg">
<g clip-path="url(#clip0_7614_167720)">
<g filter="url(#filter0_d_7614_167720)">
<path d="M8.62997 2.99185L8.13177 2.43137V2.43137L8.62997 2.99185ZM15.3643 2.99185L15.8625 2.43137V2.43137L15.3643 2.99185ZM15.1485 2.8001L14.6503 3.36057L15.1485 2.8001ZM8.84569 2.8001L9.3439 3.36057L9.3439 3.36057L8.84569 2.8001ZM4.05932 21.0409L4.50009 20.4343L4.05932 21.0409ZM2.95331 19.9349L3.55999 19.4942L2.95331 19.9349ZM21.0409 19.9349L20.4342 19.4942L21.0409 19.9349ZM19.9349 21.0409L19.4941 20.4343L19.9349 21.0409ZM21.2458 7.98263V12.997H22.7456V7.98263H21.2458ZM12.997 21.2458H10.9973V22.7456H12.997V21.2458ZM2.74843 12.997V7.98263H1.24864V12.997H2.74843ZM14.6503 3.36057L14.8661 3.55233L15.8625 2.43137L15.6467 2.23962L14.6503 3.36057ZM9.12817 3.55233L9.3439 3.36057L8.34749 2.23962L8.13177 2.43137L9.12817 3.55233ZM5.9829 4.74816C7.14239 4.74816 8.26156 4.32265 9.12817 3.55233L8.13177 2.43137C7.53969 2.95766 6.77507 3.24837 5.9829 3.24837V4.74816ZM14.8661 3.55233C15.7327 4.32265 16.8518 4.74816 18.0113 4.74816V3.24837C17.2192 3.24837 16.4545 2.95766 15.8625 2.43137L14.8661 3.55233ZM15.6467 2.23962C13.5654 0.389507 10.4289 0.389507 8.34749 2.23962L9.3439 3.36057C10.857 2.01557 13.1372 2.01557 14.6503 3.36057L15.6467 2.23962ZM10.9973 21.2458C9.10595 21.2458 7.74771 21.2448 6.69591 21.1308C5.65815 21.0184 5.00802 20.8033 4.50009 20.4343L3.61854 21.6476C4.42475 22.2334 5.369 22.4956 6.53437 22.6219C7.6857 22.7466 9.13936 22.7456 10.9973 22.7456V21.2458ZM1.24864 12.997C1.24864 14.8549 1.24761 16.3085 1.37235 17.4599C1.49861 18.6252 1.76089 19.5695 2.34664 20.3757L3.55999 19.4942C3.19096 18.9862 2.97585 18.3361 2.86341 17.2983C2.74946 16.2465 2.74843 14.8883 2.74843 12.997H1.24864ZM4.50009 20.4343C4.13934 20.1722 3.82209 19.8549 3.55999 19.4942L2.34664 20.3757C2.70125 20.8638 3.13046 21.293 3.61854 21.6476L4.50009 20.4343ZM21.2458 12.997C21.2458 14.8883 21.2448 16.2465 21.1308 17.2983C21.0184 18.3361 20.8033 18.9862 20.4342 19.4942L21.6476 20.3757C22.2333 19.5695 22.4956 18.6252 22.6219 17.4599C22.7466 16.3085 22.7456 14.8549 22.7456 12.997H21.2458ZM12.997 22.7456C14.8549 22.7456 16.3085 22.7466 17.4599 22.6219C18.6252 22.4956 19.5695 22.2334 20.3757 21.6476L19.4941 20.4343C18.9862 20.8033 18.3361 21.0184 17.2983 21.1308C16.2465 21.2448 14.8883 21.2458 12.997 21.2458V22.7456ZM20.4342 19.4942C20.1721 19.8549 19.8549 20.1722 19.4941 20.4343L20.3757 21.6476C20.8638 21.293 21.293 20.8638 21.6476 20.3757L20.4342 19.4942ZM22.7456 7.98263C22.7456 5.36797 20.626 3.24837 18.0113 3.24837V4.74816C19.7977 4.74816 21.2458 6.19628 21.2458 7.98263H22.7456ZM2.74843 7.98263C2.74843 6.19628 4.19655 4.74816 5.9829 4.74816V3.24837C3.36824 3.24837 1.24864 5.36797 1.24864 7.98263H2.74843ZM7.24779 12.997C7.24779 15.62 9.37414 17.7463 11.9971 17.7463V16.2465C10.2024 16.2465 8.74758 14.7917 8.74758 12.997H7.24779ZM11.9971 17.7463C14.6201 17.7463 16.7464 15.62 16.7464 12.997H15.2467C15.2467 14.7917 13.7918 16.2465 11.9971 16.2465V17.7463ZM16.7464 12.997C16.7464 10.374 14.6201 8.24766 11.9971 8.24766V9.74745C13.7918 9.74745 15.2467 11.2023 15.2467 12.997H16.7464ZM11.9971 8.24766C9.37414 8.24766 7.24779 10.374 7.24779 12.997H8.74758C8.74758 11.2023 10.2024 9.74745 11.9971 9.74745V8.24766Z" fill="#1A141F"/>
</g>
<path d="M16.9966 7.99792C16.9966 8.55021 17.4443 8.99792 17.9966 8.99792C18.5489 8.99792 18.9966 8.55021 18.9966 7.99792C18.9966 7.44564 18.5489 6.99792 17.9966 6.99792C17.4443 6.99792 16.9966 7.44564 16.9966 7.99792Z" fill="#1A141F"/>
</g>
<defs>
<filter id="filter0_d_7614_167720" x="-3.75076" y="-3.14738" width="31.4957" height="31.8921" filterUnits="userSpaceOnUse" color-interpolation-filters="sRGB">
<feFlood flood-opacity="0" result="BackgroundImageFix"/>
<feColorMatrix in="SourceAlpha" type="matrix" values="0 0 0 0 0 0 0 0 0 0 0 0 0 0 0 0 0 0 127 0" result="hardAlpha"/>
<feMorphology radius="0.999858" operator="erode" in="SourceAlpha" result="effect1_dropShadow_7614_167720"/>
<feOffset dy="0.999858"/>
<feGaussianBlur stdDeviation="2.99957"/>
<feComposite in2="hardAlpha" operator="out"/>
<feColorMatrix type="matrix" values="0 0 0 0 0.251085 0 0 0 0 0.129774 0 0 0 0 0.270833 0 0 0 0.28 0"/>
<feBlend mode="normal" in2="BackgroundImageFix" result="effect1_dropShadow_7614_167720"/>
<feBlend mode="normal" in="SourceGraphic" in2="effect1_dropShadow_7614_167720" result="shape"/>
</filter>
<clipPath id="clip0_7614_167720">
<rect width="23.9966" height="23.9966" fill="white" transform="translate(-0.000976562 -0.00109863)"/>
</clipPath>
</defs>
</svg>
