<svg width="71" height="71" viewBox="0 0 71 71" fill="none" xmlns="http://www.w3.org/2000/svg">
<path d="M34.1124 56.2673L33.8394 55.5688L34.1124 56.2673ZM22.1122 58.5717L21.7372 59.2212H21.7372L22.1122 58.5717ZM18.1077 47.0271L17.3663 47.14L18.1077 47.0271ZM19.5582 39.3287L20.2077 39.7037L19.5582 39.3287ZM17.8301 42.9889L17.093 42.8501L17.093 42.8501L17.8301 42.9889ZM40.0541 51.162L40.7036 51.537L40.0541 51.162ZM37.7483 54.4887L38.2371 55.0576L37.7483 54.4887ZM30.7952 19.8655L30.1457 19.4905L30.7952 19.8655ZM50.6416 31.3239L39.4046 50.787L40.7036 51.537L51.9407 32.0739L50.6416 31.3239ZM20.2077 39.7037L31.4447 20.2405L30.1457 19.4905L18.9087 38.9537L20.2077 39.7037ZM33.8394 55.5688C30.6384 56.8194 28.3133 57.7258 26.4808 58.1539C24.6679 58.5775 23.4815 58.4963 22.4872 57.9222L21.7372 59.2212C23.2056 60.069 24.8401 60.0777 26.822 59.6146C28.7844 59.1561 31.228 58.1995 34.3853 56.9659L33.8394 55.5688ZM17.3663 47.14C17.8766 50.4911 18.2699 53.0856 18.8541 55.0143C19.444 56.9622 20.2688 58.3734 21.7372 59.2212L22.4872 57.9222C21.4929 57.3481 20.8293 56.3613 20.2897 54.5795C19.7442 52.7784 19.3666 50.3116 18.8492 46.9141L17.3663 47.14ZM18.9087 38.9537C17.9065 40.6894 17.3087 41.7053 17.093 42.8501L18.5671 43.1278C18.7246 42.2921 19.1544 41.528 20.2077 39.7037L18.9087 38.9537ZM18.8492 46.9141C18.532 44.8316 18.4096 43.9635 18.5671 43.1278L17.093 42.8501C16.8774 43.9948 17.0645 45.1586 17.3663 47.14L18.8492 46.9141ZM39.4046 50.787C38.3513 52.6113 37.9045 53.3657 37.2595 53.9199L38.2371 55.0576C39.1206 54.2984 39.7015 53.2728 40.7036 51.537L39.4046 50.787ZM34.3853 56.9659C36.2521 56.2366 37.3536 55.8167 38.2371 55.0576L37.2595 53.9199C36.6145 54.4741 35.8015 54.8022 33.8394 55.5688L34.3853 56.9659ZM46.5849 16.1838C49.0187 17.5889 50.7779 18.6065 52.0157 19.5617C53.2363 20.5036 53.8585 21.3178 54.1161 22.2793L55.565 21.8911C55.1884 20.4854 54.2856 19.4186 52.9322 18.3742C51.5959 17.343 49.732 16.2687 47.3349 14.8847L46.5849 16.1838ZM51.9407 32.0739C53.3246 29.6768 54.4017 27.8144 55.0434 26.2533C55.6932 24.672 55.9417 23.2968 55.565 21.8911L54.1161 22.2793C54.3738 23.2409 54.2421 24.257 53.656 25.6831C53.0616 27.1292 52.0468 28.89 50.6416 31.3239L51.9407 32.0739ZM47.3349 14.8847C44.9377 13.5008 43.0754 12.4237 41.5143 11.7821C39.933 11.1322 38.5578 10.8837 37.1521 11.2604L37.5403 12.7093C38.5019 12.4516 39.518 12.5833 40.944 13.1694C42.3902 13.7638 44.151 14.7786 46.5849 16.1838L47.3349 14.8847ZM31.4447 20.2405C32.8499 17.8067 33.8674 16.0475 34.8227 14.8097C35.7646 13.5891 36.5788 12.9669 37.5403 12.7093L37.1521 11.2604C35.7464 11.637 34.6796 12.5398 33.6352 13.8932C32.604 15.2295 31.5297 17.0934 30.1457 19.4905L31.4447 20.2405ZM51.6662 31.0494L31.1702 19.216L30.4202 20.5151L50.9162 32.3484L51.6662 31.0494Z" fill="#2D264B"/>
</svg>
