<svg width="34" height="34" viewBox="0 0 34 34" fill="none" xmlns="http://www.w3.org/2000/svg">
<path d="M16.0467 26.2482L15.7093 25.3846L16.0467 26.2482ZM10.5214 27.3092L10.0578 28.1121L10.0578 28.1121L10.5214 27.3092ZM8.67761 21.9936L7.76103 22.1332L8.67761 21.9936ZM9.34546 18.449L10.1484 18.9126L9.34546 18.449ZM8.54978 20.1343L7.63865 19.9626H7.63865L8.54978 20.1343ZM18.7825 23.8975L19.5855 24.3611L18.7825 23.8975ZM17.7208 25.4292L18.3251 26.1325L17.7208 25.4292ZM14.5194 9.4875L13.7164 9.02392L14.5194 9.4875ZM23.1535 14.4724L17.9796 23.4339L19.5855 24.3611L24.7594 15.3996L23.1535 14.4724ZM10.1484 18.9126L15.3223 9.95108L13.7164 9.02392L8.54252 17.9854L10.1484 18.9126ZM15.7093 25.3846C14.2185 25.967 13.1939 26.3649 12.4005 26.5503C11.6313 26.73 11.2589 26.6644 10.985 26.5062L10.0578 28.1121C10.9178 28.6086 11.8443 28.5845 12.8224 28.3559C13.7762 28.1331 14.9473 27.6731 16.3841 27.1118L15.7093 25.3846ZM7.76103 22.1332C7.99329 23.6582 8.18047 24.9024 8.4644 25.8399C8.75555 26.8012 9.19784 27.6156 10.0578 28.1121L10.985 26.5062C10.7111 26.3481 10.4681 26.0583 10.2391 25.3024C10.0029 24.5226 9.83519 23.4363 9.5942 21.854L7.76103 22.1332ZM8.54252 17.9854C8.10094 18.7503 7.76054 19.3157 7.63865 19.9626L9.4609 20.306C9.51082 20.0411 9.64361 19.7869 10.1484 18.9126L8.54252 17.9854ZM9.5942 21.854C9.44219 20.8559 9.41099 20.5709 9.4609 20.306L7.63865 19.9626C7.51676 20.6096 7.62805 21.2601 7.76103 22.1332L9.5942 21.854ZM17.9796 23.4339C17.4748 24.3083 17.3211 24.5503 17.1166 24.726L18.3251 26.1325C18.8244 25.7034 19.1439 25.1259 19.5855 24.3611L17.9796 23.4339ZM16.3841 27.1118C17.2067 26.7904 17.8258 26.5615 18.3251 26.1325L17.1166 24.726C16.9121 24.9017 16.6497 25.0172 15.7093 25.3846L16.3841 27.1118ZM21.4986 8.29616C22.6334 8.95138 23.4028 9.39786 23.9346 9.80822C24.4451 10.2021 24.6227 10.479 24.6951 10.7495L26.4863 10.2696C26.2667 9.45003 25.7422 8.86088 25.0675 8.3402C24.4141 7.83597 23.5152 7.31928 22.4257 6.69028L21.4986 8.29616ZM24.7594 15.3996C25.3884 14.3101 25.9085 13.4132 26.2222 12.6498C26.5462 11.8615 26.7059 11.0891 26.4863 10.2696L24.6951 10.7495C24.7676 11.0199 24.7522 11.3485 24.5071 11.9449C24.2518 12.5662 23.8087 13.3375 23.1535 14.4724L24.7594 15.3996ZM22.4257 6.69028C21.3363 6.06127 20.4394 5.54118 19.676 5.22743C18.8877 4.90344 18.1152 4.74379 17.2957 4.96338L17.7757 6.75451C18.0461 6.68205 18.3747 6.69742 18.9711 6.94253C19.5924 7.19788 20.3637 7.64095 21.4986 8.29616L22.4257 6.69028ZM15.3223 9.95108C15.9775 8.81622 16.424 8.04683 16.8344 7.51506C17.2283 7.00459 17.5052 6.82698 17.7757 6.75451L17.2957 4.96338C16.4762 5.18297 15.887 5.70747 15.3664 6.38219C14.8621 7.0356 14.3455 7.93446 13.7164 9.02392L15.3223 9.95108ZM24.42 14.133L14.983 8.68456L14.0558 10.2904L23.4929 15.7389L24.42 14.133Z" fill="#8327D8"/>
</svg>
