<svg width="58" height="82" viewBox="0 0 58 82" fill="none" xmlns="http://www.w3.org/2000/svg">
<path d="M29 49C25.8174 49 22.7652 47.7357 20.5147 45.4853C18.2643 43.2348 17 40.1826 17 37V13C17 9.8174 18.2643 6.76516 20.5147 4.51472C22.7652 2.26428 25.8174 1 29 1C32.1826 1 35.2348 2.26428 37.4853 4.51472C39.7357 6.76516 41 9.8174 41 13V37C41 40.1826 39.7357 43.2348 37.4853 45.4853C35.2348 47.7357 32.1826 49 29 49Z" fill="#2C0352"/>
<path d="M57 37C57 44.4261 54.05 51.548 48.799 56.799C43.548 62.05 36.4261 65 29 65M29 65C21.5739 65 14.452 62.05 9.20101 56.799C3.94999 51.548 1 44.4261 1 37M29 65V81M29 81H13M29 81H45M29 49C25.8174 49 22.7652 47.7357 20.5147 45.4853C18.2643 43.2348 17 40.1826 17 37V13C17 9.8174 18.2643 6.76516 20.5147 4.51472C22.7652 2.26428 25.8174 1 29 1C32.1826 1 35.2348 2.26428 37.4853 4.51472C39.7357 6.76516 41 9.8174 41 13V37C41 40.1826 39.7357 43.2348 37.4853 45.4853C35.2348 47.7357 32.1826 49 29 49Z" stroke="#2C0352" stroke-width="1.5" stroke-linecap="round" stroke-linejoin="round"/>
</svg>
