<svg width="28" height="28" viewBox="0 0 28 28" fill="none" xmlns="http://www.w3.org/2000/svg">
<path fill-rule="evenodd" clip-rule="evenodd" d="M8.45768 6.99998C8.45768 3.9394 10.9388 1.45831 13.9993 1.45831C17.0599 1.45831 19.541 3.9394 19.541 6.99998V11.6666C19.541 14.7272 17.0599 17.2083 13.9993 17.2083C10.9388 17.2083 8.45768 14.7272 8.45768 11.6666V6.99998ZM13.9993 3.20831C11.9053 3.20831 10.2077 4.9059 10.2077 6.99998V11.6666C10.2077 13.7607 11.9053 15.4583 13.9993 15.4583C16.0934 15.4583 17.791 13.7607 17.791 11.6666V6.99998C17.791 4.9059 16.0934 3.20831 13.9993 3.20831ZM12.7968 8.20255L11.8782 8.43219C11.4094 8.54939 10.9343 8.26435 10.8171 7.79553C10.6999 7.32671 10.985 6.85164 11.4538 6.73444L12.3723 6.5048C13.4406 6.23774 14.5581 6.23774 15.6264 6.5048L16.5449 6.73444C17.0137 6.85164 17.2988 7.32671 17.1816 7.79553C17.0644 8.26435 16.5893 8.54939 16.1205 8.43219L15.2019 8.20255C14.4124 8.00516 13.5863 8.00516 12.7968 8.20255ZM12.8003 12.4053L12.526 12.4967C12.0676 12.6496 11.5721 12.4018 11.4193 11.9433C11.2664 11.4849 11.5142 10.9894 11.9727 10.8365L12.2469 10.7451C13.3844 10.366 14.6143 10.366 15.7518 10.7451L16.026 10.8365C16.4845 10.9894 16.7323 11.4849 16.5794 11.9433C16.4266 12.4018 15.9311 12.6496 15.4727 12.4967L15.1984 12.4053C14.4201 12.1459 13.5786 12.1459 12.8003 12.4053ZM4.66602 10.7916C5.14926 10.7916 5.54102 11.1834 5.54102 11.6666C5.54102 16.3381 9.32794 20.125 13.9993 20.125C18.6708 20.125 22.4577 16.3381 22.4577 11.6666C22.4577 11.1834 22.8494 10.7916 23.3327 10.7916C23.8159 10.7916 24.2077 11.1834 24.2077 11.6666C24.2077 17.0098 20.1027 21.3942 14.8743 21.838V24.4452C15.1269 24.4784 15.3779 24.526 15.6264 24.5881L16.5449 24.8178C17.0137 24.935 17.2988 25.41 17.1816 25.8789C17.0644 26.3477 16.5893 26.6327 16.1205 26.5155L15.2019 26.2859C14.8071 26.1872 14.4032 26.1378 13.9993 26.1378C13.5955 26.1378 13.1916 26.1872 12.7968 26.2859L11.8782 26.5155C11.4094 26.6327 10.9343 26.3477 10.8171 25.8789C10.6999 25.41 10.985 24.935 11.4538 24.8178L12.3723 24.5881C12.6208 24.526 12.8718 24.4784 13.1243 24.4452V21.838C7.89605 21.3942 3.79102 17.0098 3.79102 11.6666C3.79102 11.1834 4.18277 10.7916 4.66602 10.7916Z" fill="white"/>
</svg>
