<svg width="85" height="85" viewBox="0 0 85 85" fill="none" xmlns="http://www.w3.org/2000/svg">
<path d="M73.6298 40.3212C73.6418 44.9489 72.5606 49.514 70.4742 53.6446C68.0004 58.5945 64.1973 62.7578 59.4909 65.6683C54.7846 68.5788 49.3608 70.1215 43.8272 70.1237C39.1996 70.1358 34.6345 69.0545 30.5038 66.9681L10.5186 73.6299L17.1803 53.6446C15.0939 49.514 14.0127 44.9489 14.0247 40.3212C14.0269 34.7876 15.5696 29.3638 18.4801 24.6575C21.3906 19.9511 25.5539 16.1481 30.5038 13.6742C34.6345 11.5878 39.1996 10.5066 43.8272 10.5187H45.5803C52.8884 10.9218 59.791 14.0065 64.9665 19.1819C70.142 24.3574 73.2266 31.26 73.6298 38.5681V40.3212Z" stroke="#361252" stroke-width="7.01237" stroke-linecap="round" stroke-linejoin="round"/>
</svg>
