<svg width="29" height="29" viewBox="0 0 29 29" fill="none" xmlns="http://www.w3.org/2000/svg">
<path d="M22.2875 19.4291C21.8319 18.9734 21.0932 18.9734 20.6376 19.429C20.182 19.8847 20.182 20.6234 20.6376 21.079L22.2875 19.4291ZM24.5502 24.9916C25.0058 25.4472 25.7445 25.4472 26.2001 24.9916C26.6557 24.536 26.6557 23.7973 26.2001 23.3417L24.5502 24.9916ZM20.6376 21.079L24.5502 24.9916L26.2001 23.3417L22.2875 19.4291L20.6376 21.079ZM13.6371 20.0654C9.41933 20.0654 6.00016 16.6463 6.00016 12.4285H3.66683C3.66683 17.9349 8.13067 22.3988 13.6371 22.3988V20.0654ZM21.274 12.4285C21.274 16.6463 17.8548 20.0654 13.6371 20.0654V22.3988C19.1435 22.3988 23.6073 17.9349 23.6073 12.4285H21.274ZM13.6371 4.79165C17.8548 4.79165 21.274 8.21081 21.274 12.4285H23.6073C23.6073 6.92213 19.1435 2.45832 13.6371 2.45832V4.79165ZM13.6371 2.45832C8.13067 2.45832 3.66683 6.92213 3.66683 12.4285H6.00016C6.00016 8.21081 9.41933 4.79165 13.6371 4.79165V2.45832Z" fill="white"/>
</svg>
