<svg width="51" height="51" viewBox="0 0 51 51" fill="none" xmlns="http://www.w3.org/2000/svg">
<path d="M39.5611 26.6291L40.8306 26.8058L39.5611 26.6291ZM39.0145 30.5563L40.284 30.733L39.0145 30.5563ZM12.9526 30.5563L14.2221 30.3796L12.9526 30.5563ZM12.4061 26.6292L11.1365 26.8058L12.4061 26.6292ZM20.1162 45.2903L19.6178 46.4712L20.1162 45.2903ZM14.4733 38.6726L15.6764 38.2305L14.4733 38.6726ZM37.4938 38.6726L38.6969 39.1146V39.1146L37.4938 38.6726ZM31.851 45.2903L31.3526 44.1094L31.851 45.2903ZM12.6762 18.634C12.6093 17.9293 11.9837 17.4122 11.279 17.4792C10.5743 17.5462 10.0573 18.1717 10.1242 18.8764L12.6762 18.634ZM41.8429 18.8764C41.9099 18.1717 41.3929 17.5462 40.6881 17.4792C39.9834 17.4122 39.3578 17.9292 39.2909 18.634L41.8429 18.8764ZM42.6502 15.8703C43.3581 15.8703 43.932 15.2964 43.932 14.5885C43.932 13.8806 43.3581 13.3068 42.6502 13.3068V15.8703ZM9.31689 13.3068C8.609 13.3068 8.03514 13.8806 8.03514 14.5885C8.03514 15.2964 8.609 15.8703 9.31689 15.8703V13.3068ZM20.5351 37.5052C20.5351 38.2131 21.109 38.787 21.8169 38.787C22.5248 38.787 23.0986 38.2131 23.0986 37.5052H20.5351ZM23.0986 20.8385C23.0986 20.1306 22.5248 19.5568 21.8169 19.5568C21.109 19.5568 20.5351 20.1306 20.5351 20.8385H23.0986ZM28.8685 37.5052C28.8685 38.2131 29.4423 38.787 30.1502 38.787C30.8581 38.787 31.432 38.2131 31.432 37.5052H28.8685ZM31.432 20.8385C31.432 20.1306 30.8581 19.5568 30.1502 19.5568C29.4423 19.5568 28.8685 20.1306 28.8685 20.8385H31.432ZM34.3169 14.5885V15.8703H35.5986V14.5885H34.3169ZM17.6502 14.5885H16.3685V15.8703H17.6502V14.5885ZM38.2915 26.4525L37.745 30.3796L40.284 30.733L40.8306 26.8058L38.2915 26.4525ZM14.2221 30.3796L13.6756 26.4525L11.1365 26.8058L11.6831 30.733L14.2221 30.3796ZM25.9836 44.5568C22.823 44.5568 21.6173 44.5325 20.6145 44.1094L19.6178 46.4712C21.2135 47.1445 23.0533 47.1203 25.9836 47.1203V44.5568ZM11.6831 30.733C12.2678 34.9347 12.5811 37.2389 13.2702 39.1146L15.6764 38.2305C15.1061 36.6782 14.8254 34.7143 14.2221 30.3796L11.6831 30.733ZM20.6145 44.1094C18.6015 43.2599 16.7697 41.2061 15.6764 38.2305L13.2702 39.1146C14.5322 42.5494 16.7716 45.2701 19.6178 46.4712L20.6145 44.1094ZM37.745 30.3796C37.1418 34.7143 36.861 36.6782 36.2907 38.2305L38.6969 39.1146C39.3861 37.2389 39.6993 34.9347 40.284 30.733L37.745 30.3796ZM25.9836 47.1203C28.9138 47.1203 30.7536 47.1445 32.3493 46.4712L31.3526 44.1094C30.3498 44.5325 29.1441 44.5568 25.9836 44.5568V47.1203ZM36.2907 38.2305C35.1974 41.2061 33.3656 43.2599 31.3526 44.1094L32.3493 46.4712C35.1955 45.2701 37.435 42.5494 38.6969 39.1146L36.2907 38.2305ZM13.6756 26.4525C13.2132 23.1297 12.8666 20.6372 12.6762 18.634L10.1242 18.8764C10.3211 20.9482 10.6772 23.5048 11.1365 26.8058L13.6756 26.4525ZM40.8306 26.8058C41.29 23.5048 41.6461 20.9482 41.8429 18.8764L39.2909 18.634C39.1005 20.6372 38.754 23.1297 38.2915 26.4525L40.8306 26.8058ZM42.6502 13.3068H9.31689V15.8703H42.6502V13.3068ZM23.0986 37.5052V20.8385H20.5351V37.5052H23.0986ZM31.432 37.5052V20.8385H28.8685V37.5052H31.432ZM33.0351 12.5052V14.5885H35.5986V12.5052H33.0351ZM34.3169 13.3068H17.6502V15.8703H34.3169V13.3068ZM18.932 14.5885V12.5052H16.3685V14.5885H18.932ZM25.9836 5.45363C29.878 5.45363 33.0351 8.61073 33.0351 12.5052H35.5986C35.5986 7.19494 31.2938 2.89012 25.9836 2.89012V5.45363ZM25.9836 2.89012C20.6733 2.89012 16.3685 7.19494 16.3685 12.5052H18.932C18.932 8.61073 22.0891 5.45363 25.9836 5.45363V2.89012Z" fill="#8327D8"/>
</svg>
