<svg width="30" height="30" viewBox="0 0 30 30" fill="none" xmlns="http://www.w3.org/2000/svg">
<path d="M20 3.75V5H24.125L18.75 10.375C17.5 9.375 16 8.75 14.375 8.75C10.625 8.75 7.5 11.875 7.5 15.625C7.5 19.125 10.25 22.125 13.75 22.5V25H11.25V26.25H13.75V28.75H15V26.25H17.5V25H15V22.5C18.5 22.125 21.25 19.25 21.25 15.625C21.25 14 20.625 12.5 19.625 11.25L25 5.875V10H26.25V3.75H20ZM14.375 10C15.625 10 16.875 10.5 17.875 11.25C18.125 11.5 18.5 11.75 18.75 12.125C19.5 13.125 20 14.375 20 15.625C20 18.75 17.5 21.25 14.375 21.25C11.25 21.25 8.75 18.75 8.75 15.625C8.75 12.5 11.25 10 14.375 10Z" fill="black"/>
</svg>
