<svg width="18" height="16" viewBox="0 0 18 16" fill="none" xmlns="http://www.w3.org/2000/svg">
<path d="M8.94628 12.6515C10.0193 12.6515 10.9315 12.276 11.6829 11.5252C12.4337 10.7738 12.8091 9.86166 12.8091 8.78866C12.8091 7.71566 12.4337 6.80347 11.6829 6.05209C10.9315 5.30128 10.0193 4.92587 8.94628 4.92587C7.87329 4.92587 6.9611 5.30128 6.20971 6.05209C5.4589 6.80347 5.08349 7.71566 5.08349 8.78866C5.08349 9.86166 5.4589 10.7738 6.20971 11.5252C6.9611 12.276 7.87329 12.6515 8.94628 12.6515ZM8.94628 10.9347C8.34541 10.9347 7.83752 10.7272 7.42263 10.3123C7.00774 9.89742 6.80029 9.38954 6.80029 8.78866C6.80029 8.18778 7.00774 7.6799 7.42263 7.265C7.83752 6.85011 8.34541 6.64267 8.94628 6.64267C9.54716 6.64267 10.055 6.85011 10.4699 7.265C10.8848 7.6799 11.0923 8.18778 11.0923 8.78866C11.0923 9.38954 10.8848 9.89742 10.4699 10.3123C10.055 10.7272 9.54716 10.9347 8.94628 10.9347ZM2.0791 15.6558C1.60698 15.6558 1.20296 15.4879 0.867043 15.152C0.530551 14.8155 0.362305 14.4112 0.362305 13.939V3.63827C0.362305 3.16615 0.530551 2.76213 0.867043 2.42621C1.20296 2.08972 1.60698 1.92148 2.0791 1.92148H4.78305L6.37109 0.204681H11.5215L13.1095 1.92148H15.8135C16.2856 1.92148 16.6899 2.08972 17.0264 2.42621C17.3623 2.76213 17.5303 3.16615 17.5303 3.63827V13.939C17.5303 14.4112 17.3623 14.8155 17.0264 15.152C16.6899 15.4879 16.2856 15.6558 15.8135 15.6558H2.0791ZM15.8135 13.939V3.63827H12.337L10.7704 1.92148H7.12219L5.55561 3.63827H2.0791V13.939H15.8135Z" fill="white"/>
</svg>
