<svg width="19" height="19" viewBox="0 0 19 19" fill="none" xmlns="http://www.w3.org/2000/svg">
<path d="M6.42981 16.5422L6.16271 16.9744L6.42981 16.5422ZM6.10684 16.3571L6.29391 15.8847L6.10684 16.3571ZM5.44826 16.3707L5.57574 16.8625L5.44826 16.3707ZM5.75496 16.3039L5.79411 16.8105L5.75496 16.3039ZM2.67888 13.6013L2.18705 13.4738L2.67888 13.6013ZM2.74569 13.2943L3.25229 13.3332L2.74569 13.2943ZM2.50678 12.6201L2.07523 12.8883L2.50678 12.6201ZM2.69191 12.9414L2.21988 13.1294L2.69191 12.9414ZM2.36526 15.4506L2.86315 15.3493L2.36526 15.4506ZM3.599 16.6843L3.70033 16.1864L3.599 16.6843ZM6.39596 10.4757C6.11535 10.4757 5.88787 10.7032 5.88787 10.9838C5.88787 11.2644 6.11535 11.4919 6.39596 11.4919V10.4757ZM12.7189 11.4919C12.9995 11.4919 13.2269 11.2644 13.2269 10.9838C13.2269 10.7032 12.9995 10.4757 12.7189 10.4757V11.4919ZM6.39596 7.31424C6.11535 7.31424 5.88787 7.54172 5.88787 7.82233C5.88787 8.10294 6.11535 8.33042 6.39596 8.33042V7.31424ZM12.7189 8.33042C12.9995 8.33042 13.2269 8.10294 13.2269 7.82233C13.2269 7.54172 12.9995 7.31424 12.7189 7.31424V8.33042ZM4.30471 4.28601C7.19284 1.39787 11.8754 1.39787 14.7636 4.28601L15.4821 3.56746C12.1971 0.282482 6.87114 0.282482 3.58616 3.56746L4.30471 4.28601ZM14.7636 4.28601C17.6517 7.17414 17.6517 11.8567 14.7636 14.7449L15.4821 15.4634C18.7671 12.1784 18.7671 6.85244 15.4821 3.56746L14.7636 4.28601ZM2.93832 12.352C2.0658 10.948 1.95905 9.38686 2.30018 7.93534C2.64307 6.47636 3.43344 5.15727 4.30471 4.28601L3.58616 3.56746C2.58553 4.56808 1.69847 6.05397 1.31095 7.70286C0.921676 9.35921 1.03153 11.2089 2.07523 12.8883L2.93832 12.352ZM14.7636 14.7449C13.9321 15.5763 12.6148 16.3665 11.1436 16.7184C9.67959 17.0687 8.10092 16.9776 6.69691 16.11L6.16271 16.9744C7.84887 18.0164 9.719 18.1041 11.3801 17.7067C13.034 17.3111 14.5182 16.4274 15.4821 15.4634L14.7636 14.7449ZM6.69691 16.11C6.54821 16.0181 6.41224 15.9315 6.29391 15.8847L5.91978 16.8295C5.91582 16.8279 5.92702 16.832 5.97242 16.8584C6.01649 16.8841 6.07439 16.9198 6.16271 16.9744L6.69691 16.11ZM5.57574 16.8625C5.75458 16.8162 5.78044 16.8115 5.79411 16.8105L5.71582 15.7973C5.59005 15.807 5.45792 15.8433 5.32079 15.8789L5.57574 16.8625ZM6.29391 15.8847C6.09778 15.807 5.92614 15.7811 5.71582 15.7973L5.79411 16.8105C5.83263 16.8075 5.84964 16.8092 5.85836 16.8105C5.86708 16.8119 5.88385 16.8152 5.91978 16.8295L6.29391 15.8847ZM3.17072 13.7288C3.20628 13.5916 3.24261 13.4594 3.25229 13.3332L2.23908 13.2555C2.23803 13.2692 2.2334 13.295 2.18705 13.4738L3.17072 13.7288ZM2.07523 12.8883C2.12976 12.9761 2.16537 13.0334 2.19098 13.0772C2.21729 13.1221 2.2214 13.1333 2.21988 13.1294L3.16394 12.7535C3.11672 12.6349 3.03008 12.4996 2.93832 12.352L2.07523 12.8883ZM3.25229 13.3332C3.26844 13.1226 3.24208 12.9497 3.16394 12.7535L2.21988 13.1294C2.23401 13.1649 2.2375 13.1819 2.23889 13.191C2.24028 13.2001 2.24201 13.2174 2.23908 13.2555L3.25229 13.3332ZM2.18705 13.4738C2.06002 13.9639 1.95806 14.3562 1.89883 14.6703C1.84005 14.982 1.81091 15.2744 1.86738 15.5519L2.86315 15.3493C2.84674 15.2686 2.84558 15.1335 2.89741 14.8586C2.9488 14.5861 3.04008 14.2328 3.17072 13.7288L2.18705 13.4738ZM5.32079 15.8789C4.81674 16.0095 4.46347 16.1008 4.19097 16.1522C3.91612 16.204 3.78094 16.2028 3.70033 16.1864L3.49767 17.1822C3.77516 17.2387 4.06755 17.2095 4.37928 17.1507C4.69336 17.0915 5.08568 16.9896 5.57574 16.8625L5.32079 15.8789ZM1.86738 15.5519C2.03452 16.3732 2.67638 17.0151 3.49767 17.1822L3.70033 16.1864C3.27858 16.1006 2.94898 15.771 2.86315 15.3493L1.86738 15.5519ZM6.39596 11.4919H12.7189V10.4757H6.39596V11.4919ZM6.39596 8.33042H12.7189V7.31424H6.39596V8.33042Z" fill="white"/>
</svg>
