<svg width="28" height="27" viewBox="0 0 28 27" fill="none" xmlns="http://www.w3.org/2000/svg">
<path d="M14.0918 0C6.64744 0 0.591797 6.05565 0.591797 13.5C0.591797 20.9444 6.64744 27 14.0918 27C21.5361 27 27.5918 20.9433 27.5918 13.5C27.5918 6.0567 21.5361 0 14.0918 0ZM14.0918 24.9086C7.8019 24.9086 2.68319 19.7909 2.68319 13.5C2.68319 7.20905 7.8019 2.09139 14.0918 2.09139C20.3817 2.09139 25.5004 7.20905 25.5004 13.5C25.5004 19.7909 20.3827 24.9086 14.0918 24.9086Z" fill="white"/>
<path d="M19.3204 12.3602H15.1376V8.17744C15.1376 7.60021 14.6701 7.13171 14.0919 7.13171C13.5136 7.13171 13.0461 7.60021 13.0461 8.17744V12.3602H8.86335C8.28506 12.3602 7.81763 12.8287 7.81763 13.4059C7.81763 13.9832 8.28506 14.4517 8.86335 14.4517H13.0461V18.6345C13.0461 19.2117 13.5136 19.6802 14.0919 19.6802C14.6701 19.6802 15.1376 19.2117 15.1376 18.6345V14.4517H19.3204C19.8987 14.4517 20.3661 13.9832 20.3661 13.4059C20.3661 12.8287 19.8987 12.3602 19.3204 12.3602Z" fill="white"/>
</svg>
