<svg width="21" height="20" viewBox="0 0 21 20" fill="none" xmlns="http://www.w3.org/2000/svg">
<path d="M7.24053 14.9998L7.57386 15.5713C9.07386 18.1427 12.0739 18.1427 13.5739 15.5713L13.9072 14.9998M4.05955 12.9578L4.14568 13.1354C4.69882 14.2757 5.85484 14.9998 7.12226 14.9998H13.9729C15.059 14.9998 16.0698 14.445 16.653 13.5287C17.4761 12.2353 17.2581 10.5386 16.1347 9.49528L16.0982 9.46131C15.3354 8.75297 14.9599 7.72103 15.089 6.68816L15.1429 6.25738C15.4476 3.81966 13.5468 1.6665 11.0901 1.6665H9.67102C7.21732 1.6665 5.31887 3.81704 5.62322 6.25178L5.68935 6.78082C5.81113 7.75509 5.45525 8.72825 4.73368 9.39411C3.74808 10.3036 3.47425 11.7512 4.05955 12.9578Z" stroke="white" stroke-width="1.49067" stroke-linecap="round"/>
</svg>
