<svg width="21" height="22" viewBox="0 0 21 22" fill="none" xmlns="http://www.w3.org/2000/svg">
<path d="M13.9163 19.2714L14.2679 19.8404L13.9163 19.2714ZM14.2739 19.0665L14.0276 18.4446L14.2739 19.0665ZM15.003 19.0816L14.8352 19.729L15.003 19.0816ZM14.6634 19.0076L14.6119 19.6744L14.6634 19.0076ZM18.0689 16.0156L18.7163 15.8478L18.0689 16.0156ZM17.995 15.6758L17.3281 15.7269L17.995 15.6758ZM18.2595 14.9294L18.8275 15.2824L18.2595 14.9294ZM18.0545 15.2851L18.6759 15.5325L18.0545 15.2851ZM18.4161 18.0629L17.7608 17.9295L18.4161 18.0629ZM17.0503 19.4288L16.9169 18.7734L17.0503 19.4288ZM13.9538 12.449C14.3232 12.449 14.6226 12.7484 14.6226 13.1178C14.6226 13.4871 14.3232 13.7866 13.9538 13.7866V12.449ZM6.95381 13.7866C6.58444 13.7866 6.28501 13.4871 6.28501 13.1178C6.28501 12.7484 6.58444 12.449 6.95381 12.449V13.7866ZM13.9538 8.94896C14.3232 8.94896 14.6226 9.2484 14.6226 9.61777C14.6226 9.98714 14.3232 10.2866 13.9538 10.2866V8.94896ZM6.95381 10.2866C6.58444 10.2866 6.28501 9.98714 6.28501 9.61777C6.28501 9.2484 6.58444 8.94896 6.95381 8.94896V10.2866ZM16.1938 5.77792C13.0379 2.62202 7.92121 2.62202 4.7653 5.77792L3.81947 4.83209C7.49774 1.15381 13.4614 1.15381 17.1397 4.83209L16.1938 5.77792ZM4.7653 5.77792C1.6094 8.93382 1.6094 14.0506 4.7653 17.2065L3.81947 18.1523C0.141199 14.474 0.141199 8.51036 3.81947 4.83209L4.7653 5.77792ZM17.6914 14.5763C18.6395 13.0508 18.7573 11.3527 18.3847 9.76721C18.0098 8.17185 17.1449 6.72895 16.1938 5.77792L17.1397 4.83209C18.261 5.9534 19.2531 7.61585 19.6868 9.46118C20.1228 11.3163 20.0009 13.3943 18.8275 15.2824L17.6914 14.5763ZM4.7653 17.2065C5.67195 18.1131 7.11288 18.9781 8.72244 19.3631C10.3227 19.7459 12.0399 19.6448 13.5647 18.7025L14.2679 19.8404C12.3717 21.0122 10.2708 21.1089 8.41124 20.664C6.56102 20.2214 4.90053 19.2333 3.81947 18.1523L4.7653 17.2065ZM13.5647 18.7025C13.7245 18.6038 13.8855 18.5009 14.0276 18.4446L14.5201 19.6883C14.5321 19.6835 14.5253 19.6848 14.4762 19.7134C14.4289 19.7409 14.3662 19.7796 14.2679 19.8404L13.5647 18.7025ZM14.8352 19.729C14.7438 19.7053 14.6898 19.6914 14.6489 19.6821C14.6105 19.6734 14.6047 19.6738 14.6119 19.6744L14.715 18.3408C14.8659 18.3524 15.0233 18.3959 15.1708 18.4341L14.8352 19.729ZM14.0276 18.4446C14.2598 18.3527 14.466 18.3215 14.715 18.3408L14.6119 19.6744C14.5928 19.6729 14.5811 19.6728 14.5745 19.6729C14.5684 19.6731 14.5657 19.6735 14.5649 19.6736C14.564 19.6737 14.5613 19.6742 14.5554 19.6758C14.5491 19.6776 14.538 19.6812 14.5201 19.6883L14.0276 18.4446ZM17.4215 16.1834C17.3833 16.0359 17.3398 15.8783 17.3281 15.7269L18.6618 15.6246C18.6613 15.6174 18.6608 15.6232 18.6695 15.6616C18.6788 15.7025 18.6926 15.7563 18.7163 15.8478L17.4215 16.1834ZM18.8275 15.2824C18.7668 15.38 18.7283 15.4421 18.7008 15.4891C18.6724 15.5376 18.6711 15.5444 18.6759 15.5325L17.4332 15.0376C17.4899 14.8952 17.5928 14.735 17.6914 14.5763L18.8275 15.2824ZM17.3281 15.7269C17.309 15.4776 17.3407 15.2699 17.4332 15.0376L18.6759 15.5325C18.6624 15.5663 18.6612 15.5771 18.6611 15.5774C18.6611 15.5777 18.659 15.5884 18.6618 15.6246L17.3281 15.7269ZM18.7163 15.8478C18.8566 16.3889 18.9706 16.8273 19.037 17.1794C19.1028 17.5283 19.1382 17.8685 19.0715 18.1963L17.7608 17.9295C17.7747 17.8609 17.7792 17.7277 17.7225 17.4272C17.6665 17.1299 17.5665 16.7429 17.4215 16.1834L18.7163 15.8478ZM15.1708 18.4341C15.7303 18.5792 16.1173 18.6791 16.4146 18.7352C16.7151 18.7918 16.8483 18.7874 16.9169 18.7734L17.1837 20.0841C16.8559 20.1508 16.5157 20.1154 16.1668 20.0496C15.8147 19.9832 15.3763 19.8692 14.8352 19.729L15.1708 18.4341ZM19.0715 18.1963C18.878 19.1473 18.1347 19.8906 17.1837 20.0841L16.9169 18.7734C17.342 18.6869 17.6743 18.3546 17.7608 17.9295L19.0715 18.1963ZM13.9538 13.7866H6.95381V12.449H13.9538V13.7866ZM13.9538 10.2866H6.95381V8.94896H13.9538V10.2866Z" fill="#361252"/>
</svg>
