<svg width="18" height="18" viewBox="0 0 18 18" fill="none" xmlns="http://www.w3.org/2000/svg">
<path d="M13.9026 4.14L13.9026 2.25M9 14.49L9.03303 15.75M9 14.49C9.99411 14.49 10.8 13.6841 10.8 12.69C10.8 11.6959 9.99411 10.89 9 10.89C8.00589 10.89 7.2 11.6959 7.2 12.69C7.2 13.6841 8.00589 14.49 9 14.49ZM9.03308 10.3733L9.03308 2.25M4.16343 8.39928L4.16343 15.75M4.16343 2.25L4.16343 4.14M13.9026 15.75L13.9026 8.39928M13.95 4.59C14.9441 4.59 15.75 5.39589 15.75 6.39C15.75 7.38411 14.9441 8.19 13.95 8.19C12.9559 8.19 12.15 7.38411 12.15 6.39C12.15 5.39589 12.9559 4.59 13.95 4.59ZM4.05 4.59C5.04411 4.59 5.85 5.39589 5.85 6.39C5.85 7.38411 5.04411 8.19 4.05 8.19C3.05589 8.19 2.25 7.38411 2.25 6.39C2.25 5.39589 3.05589 4.59 4.05 4.59Z" stroke="white" stroke-width="1.125" stroke-linecap="round"/>
</svg>
