<svg width="16" height="17" viewBox="0 0 16 17" fill="none" xmlns="http://www.w3.org/2000/svg">
<g clip-path="url(#clip0_44_8518)">
<path d="M6.41564 13.8529L5.7523 14.2509C5.40631 14.4589 5.01096 14.5683 4.61031 14.5683C3.86631 14.5683 3.17632 14.1983 2.76298 13.5789C2.65898 13.4229 2.57898 13.2569 2.51764 13.0856C2.13229 13.5062 1.90698 14.0622 1.90698 14.6589C1.90698 15.9456 2.95363 16.9922 4.24031 16.9922C5.52699 16.9922 6.57364 15.9456 6.57364 14.6589C6.57364 14.3809 6.51299 14.1102 6.41564 13.8529Z" fill="#372C6E"/>
<path d="M14.3716 3.01894L9.70498 1.01895C9.56763 0.960296 9.40763 1.0003 9.31363 1.11695L7.9803 2.7836C7.91764 2.86225 7.89364 2.96494 7.91496 3.0636C7.9363 3.16225 8.00095 3.24494 8.09161 3.29025L13.1269 5.80758C13.2683 5.87824 13.4189 5.91424 13.5736 5.91424C13.8302 5.91424 14.0836 5.81158 14.2696 5.63224C14.4656 5.44289 14.5742 5.18758 14.5742 4.91358V3.32559C14.5736 3.1916 14.4943 3.0716 14.3716 3.01894Z" fill="#372C6E"/>
<path d="M3.90698 14.4396V15.3256C3.90698 15.5096 4.05633 15.6589 4.24032 15.6589C4.42432 15.6589 4.57367 15.5096 4.57367 15.3256V14.5642C4.34232 14.5602 4.12098 14.5116 3.90698 14.4396Z" fill="#372C6E"/>
<path d="M12.8283 6.40425L7.22238 3.60095L3.89306 4.8496C3.54171 4.98094 3.24172 5.23094 3.0484 5.55294L1.66441 7.85958C1.36976 8.35092 1.34641 8.95023 1.60307 9.46223L2.58506 11.4262C2.76441 11.0149 3.05372 10.6809 3.42972 10.4656C3.92571 10.1809 4.30305 9.95357 4.59305 9.76957C4.5784 9.76092 4.56771 9.74557 4.5524 9.73823C4.4924 9.37423 4.31505 9.05289 4.14705 8.81758C4.65705 8.59824 5.33905 8.20293 5.68505 7.79958C5.95104 7.95558 6.3697 8.15624 6.89304 8.25893C6.5037 8.74092 6.10704 9.33758 5.96304 9.73492C5.84104 9.79026 5.65905 9.88492 5.37839 10.0476C5.02639 10.2942 4.51705 10.6096 3.76106 11.0442C3.41972 11.2402 3.18106 11.5889 3.0884 12.0256C3.0684 12.1196 3.0604 12.2136 3.05775 12.3076C3.05709 12.3376 3.05975 12.3669 3.0604 12.3969C3.0624 12.4622 3.06775 12.5269 3.0784 12.5916C3.08375 12.6236 3.08975 12.6549 3.0964 12.6869C3.11106 12.7509 3.1304 12.8142 3.15306 12.8762C3.16306 12.9036 3.17172 12.9309 3.18306 12.9582C3.2204 13.0449 3.26372 13.1302 3.31772 13.2102C3.38106 13.3056 3.45772 13.3869 3.53637 13.4636C3.58437 13.5082 3.63571 13.5489 3.68837 13.5869C3.71437 13.6063 3.74103 13.6243 3.76771 13.6423C4.06706 13.8303 4.42705 13.9136 4.77971 13.8803C4.82305 13.8756 4.86705 13.8716 4.91036 13.8629C4.96771 13.8523 5.02436 13.8389 5.08036 13.8216C5.19236 13.7856 5.3037 13.7442 5.40902 13.6809L7.69966 12.3069C8.05831 12.2196 9.8403 11.6863 11.1903 9.50229C11.9789 8.22696 12.5096 7.13765 12.8309 6.40697C12.8303 6.40494 12.8297 6.40425 12.8283 6.40425Z" fill="#372C6E"/>
</g>
<defs>
<clipPath id="clip0_44_8518">
<rect width="16" height="16" fill="white" transform="translate(0 0.992188)"/>
</clipPath>
</defs>
</svg>
