<svg width="24" height="24" viewBox="0 0 24 24" fill="none" xmlns="http://www.w3.org/2000/svg">
<path d="M18.4691 16.0548C18.0786 15.6643 17.4454 15.6643 17.0549 16.0548C16.6644 16.4454 16.6644 17.0785 17.0549 17.4691L18.4691 16.0548ZM20.2929 20.7071C20.6834 21.0976 21.3166 21.0976 21.7071 20.7071C22.0976 20.3166 22.0976 19.6834 21.7071 19.2929L20.2929 20.7071ZM17.0549 17.4691L20.2929 20.7071L21.7071 19.2929L18.4691 16.0548L17.0549 17.4691ZM11.2857 16.5714C7.81421 16.5714 5 13.7572 5 10.2857H3C3 14.8618 6.70965 18.5714 11.2857 18.5714V16.5714ZM17.5715 10.2857C17.5715 13.7572 14.7572 16.5714 11.2857 16.5714V18.5714C15.8618 18.5714 19.5715 14.8618 19.5715 10.2857H17.5715ZM11.2857 4C14.7572 4 17.5715 6.81421 17.5715 10.2857H19.5715C19.5715 5.70963 15.8618 2 11.2857 2V4ZM11.2857 2C6.70965 2 3 5.70963 3 10.2857H5C5 6.81421 7.81421 4 11.2857 4V2Z" fill="white"/>
</svg>
