<svg width="60" height="60" viewBox="0 0 60 60" fill="none" xmlns="http://www.w3.org/2000/svg">
<path d="M52.5 28.751C52.5086 32.0507 51.7376 35.3057 50.25 38.251C48.486 41.7804 45.7743 44.7489 42.4186 46.8242C39.0629 48.8994 35.1956 49.9995 31.25 50.001C27.9503 50.0096 24.6953 49.2387 21.75 47.751L7.50003 52.501L12.25 38.251C10.7624 35.3057 9.99142 32.0507 10 28.751C10.0016 24.8054 11.1016 20.9382 13.1768 17.5824C15.2521 14.2267 18.2207 11.515 21.75 9.75104C24.6953 8.26337 27.9503 7.49244 31.25 7.50105H32.5C37.7109 7.78853 42.6326 9.98795 46.3228 13.6782C50.0131 17.3684 52.2125 22.2902 52.5 27.501V28.751Z" fill="white" stroke="white" stroke-width="4.10582" stroke-linecap="round" stroke-linejoin="round"/>
</svg>
