<svg width="31" height="31" viewBox="0 0 31 31" fill="none" xmlns="http://www.w3.org/2000/svg">
<path d="M8.82288 10.0107C8.82288 11.7366 10.222 13.1357 11.9479 13.1357V14.6357C9.39356 14.6357 7.32288 12.5651 7.32288 10.0107H8.82288ZM11.9479 13.1357C13.6738 13.1357 15.0729 11.7366 15.0729 10.0107H16.5729C16.5729 12.5651 14.5022 14.6357 11.9479 14.6357V13.1357ZM15.0729 10.0107C15.0729 8.28485 13.6738 6.88574 11.9479 6.88574V5.38574C14.5022 5.38574 16.5729 7.45643 16.5729 10.0107H15.0729ZM11.9479 6.88574C10.222 6.88574 8.82288 8.28485 8.82288 10.0107H7.32288C7.32288 7.45643 9.39356 5.38574 11.9479 5.38574V6.88574ZM15.8229 18.5107H8.07288V17.0107H15.8229V18.5107ZM8.07288 24.7607H15.8229V26.2607H8.07288V24.7607ZM15.8229 24.7607C17.5488 24.7607 18.9479 23.3616 18.9479 21.6357H20.4479C20.4479 24.1901 18.3772 26.2607 15.8229 26.2607V24.7607ZM4.94788 21.6357C4.94788 23.3616 6.34699 24.7607 8.07288 24.7607V26.2607C5.51856 26.2607 3.44788 24.1901 3.44788 21.6357H4.94788ZM8.07288 18.5107C6.34699 18.5107 4.94788 19.9099 4.94788 21.6357H3.44788C3.44788 19.0814 5.51856 17.0107 8.07288 17.0107V18.5107ZM15.8229 17.0107C18.3772 17.0107 20.4479 19.0814 20.4479 21.6357H18.9479C18.9479 19.9099 17.5488 18.5107 15.8229 18.5107V17.0107Z" fill="#F6EFFF"/>
<path d="M17.4347 13.419C17.6385 13.0917 18.0207 12.917 18.4062 12.917C20.0113 12.917 21.3125 11.6158 21.3125 10.0107C21.3125 8.40566 20.0113 7.10449 18.4062 7.10449C18.0207 7.10449 17.6385 6.92977 17.4347 6.60248C17.4257 6.58801 17.4167 6.57357 17.4075 6.55917C17.0683 6.02376 17.2402 5.26568 17.8702 5.19632C18.0462 5.17694 18.2251 5.16699 18.4062 5.16699C21.0814 5.16699 23.25 7.33561 23.25 10.0107C23.25 12.6859 21.0814 14.8545 18.4062 14.8545C18.2251 14.8545 18.0462 14.8445 17.8702 14.8252C17.2402 14.7558 17.0683 13.9977 17.4075 13.4623C17.4167 13.4479 17.4257 13.4335 17.4347 13.419Z" fill="#F6EFFF"/>
<path d="M21.3664 23.6596C21.513 23.415 21.7718 23.2503 22.057 23.2503H22.2812C23.8863 23.2503 25.1875 21.9492 25.1875 20.3441C25.1875 18.739 23.8863 17.4378 22.2812 17.4378H22.057C21.7718 17.4378 21.513 17.2732 21.3664 17.0285C21.0085 16.4314 21.3969 15.5003 22.0931 15.5003H22.2812C24.9564 15.5003 27.125 17.6689 27.125 20.3441C27.125 23.0192 24.9564 25.1878 22.2812 25.1878H22.0931C21.3969 25.1878 21.0085 24.2568 21.3664 23.6596Z" fill="#F6EFFF"/>
</svg>
