<svg width="37" height="37" viewBox="0 0 37 37" fill="none" xmlns="http://www.w3.org/2000/svg">
<path d="M20.0417 20.7913C20.4559 20.7913 20.7917 20.4556 20.7917 20.0413C20.7917 19.6271 20.4559 19.2913 20.0417 19.2913V20.7913ZM20.0417 33.1247C20.4559 33.1247 20.7917 32.7889 20.7917 32.3747C20.7917 31.9605 20.4559 31.6247 20.0417 31.6247V33.1247ZM34.4754 20.5416C34.7517 20.233 34.7255 19.7589 34.4169 19.4826C34.1083 19.2063 33.6342 19.2325 33.3579 19.5411L34.4754 20.5416ZM28.7225 25.8429L28.1638 25.3426L28.7225 25.8429ZM19.84 25.8429L20.3987 25.3426H20.3987L19.84 25.8429ZM19.0588 23.846C18.7825 23.5374 18.3083 23.5112 17.9997 23.7875C17.6911 24.0637 17.6649 24.5379 17.9412 24.8465L19.0588 23.846ZM20.8333 9.24967C20.8333 12.2412 18.4082 14.6663 15.4167 14.6663V16.1663C19.2366 16.1663 22.3333 13.0696 22.3333 9.24967H20.8333ZM15.4167 14.6663C12.4251 14.6663 10 12.2412 10 9.24967H8.5C8.5 13.0696 11.5967 16.1663 15.4167 16.1663V14.6663ZM10 9.24967C10 6.25813 12.4251 3.83301 15.4167 3.83301V2.33301C11.5967 2.33301 8.5 5.4297 8.5 9.24967H10ZM15.4167 3.83301C18.4082 3.83301 20.8333 6.25813 20.8333 9.24967H22.3333C22.3333 5.4297 19.2366 2.33301 15.4167 2.33301V3.83301ZM10.7917 20.7913H20.0417V19.2913H10.7917V20.7913ZM20.0417 31.6247H10.7917V33.1247H20.0417V31.6247ZM10.7917 31.6247C7.80012 31.6247 5.375 29.1995 5.375 26.208H3.875C3.875 30.028 6.9717 33.1247 10.7917 33.1247V31.6247ZM10.7917 19.2913C6.9717 19.2913 3.875 22.388 3.875 26.208H5.375C5.375 23.2165 7.80012 20.7913 10.7917 20.7913V19.2913ZM33.3579 19.5411L28.1638 25.3426L29.2813 26.3432L34.4754 20.5416L33.3579 19.5411ZM20.3987 25.3426L19.0588 23.846L17.9412 24.8465L19.2812 26.3432L20.3987 25.3426ZM28.1638 25.3426C27.1195 26.509 26.3885 27.3228 25.7552 27.8551C25.1405 28.3718 24.7112 28.5413 24.2813 28.5413V30.0413C25.2052 30.0413 25.9674 29.6362 26.7203 29.0034C27.4546 28.3862 28.2673 27.4757 29.2813 26.3432L28.1638 25.3426ZM19.2812 26.3432C20.2952 27.4757 21.1079 28.3862 21.8422 29.0034C22.5951 29.6362 23.3573 30.0413 24.2813 30.0413V28.5413C23.8513 28.5413 23.422 28.3718 22.8073 27.8551C22.174 27.3228 21.443 26.509 20.3987 25.3426L19.2812 26.3432Z" fill="#F6EFFF"/>
</svg>
