<svg width="55" height="56" viewBox="0 0 55 56" fill="none" xmlns="http://www.w3.org/2000/svg">
<path d="M16.5908 28.158C16.5908 29.6099 16.014 31.0024 14.9874 32.029C13.9607 33.0557 12.5683 33.6324 11.1164 33.6324C9.66448 33.6324 8.27204 33.0557 7.24539 32.029C6.21874 31.0024 5.64197 29.6099 5.64197 28.158C5.64197 26.7061 6.21874 25.3137 7.24539 24.287C8.27204 23.2604 9.66448 22.6836 11.1164 22.6836C12.5683 22.6836 13.9607 23.2604 14.9874 24.287C16.014 25.3137 16.5908 26.7061 16.5908 28.158ZM33.0141 28.158C33.0141 29.6099 32.4373 31.0024 31.4107 32.029C30.384 33.0557 28.9916 33.6324 27.5397 33.6324C26.0878 33.6324 24.6953 33.0557 23.6687 32.029C22.642 31.0024 22.0652 29.6099 22.0652 28.158C22.0652 26.7061 22.642 25.3137 23.6687 24.287C24.6953 23.2604 26.0878 22.6836 27.5397 22.6836C28.9916 22.6836 30.384 23.2604 31.4107 24.287C32.4373 25.3137 33.0141 26.7061 33.0141 28.158ZM43.9629 33.6324C45.4148 33.6324 46.8073 33.0557 47.8339 32.029C48.8606 31.0024 49.4374 29.6099 49.4374 28.158C49.4374 26.7061 48.8606 25.3137 47.8339 24.287C46.8073 23.2604 45.4148 22.6836 43.9629 22.6836C42.511 22.6836 41.1186 23.2604 40.0919 24.287C39.0653 25.3137 38.4885 26.7061 38.4885 28.158C38.4885 29.6099 39.0653 31.0024 40.0919 32.029C41.1186 33.0557 42.511 33.6324 43.9629 33.6324Z" fill="white"/>
</svg>
