<svg width="56" height="12" viewBox="0 0 56 12" fill="none" xmlns="http://www.w3.org/2000/svg">
<path d="M-6.16331e-08 10.59L4.94879 6L-4.62904e-07 1.41L1.531 -6.6922e-08L8 6L1.531 12L-6.16331e-08 10.59Z" fill="#B9B6C8"/>
<path d="M8 10.59L12.9488 6L8 1.41L9.531 -6.6922e-08L16 6L9.531 12L8 10.59Z" fill="#B9B6C8"/>
<path d="M16 10.59L20.9488 6L16 1.41L17.531 -6.6922e-08L24 6L17.531 12L16 10.59Z" fill="#B9B6C8"/>
<path d="M24 10.59L28.9488 6L24 1.41L25.531 -6.6922e-08L32 6L25.531 12L24 10.59Z" fill="#B9B6C8"/>
<path d="M32 10.59L36.9488 6L32 1.41L33.531 -6.6922e-08L40 6L33.531 12L32 10.59Z" fill="#B9B6C8"/>
<path d="M40 10.59L44.9488 6L40 1.41L41.531 -6.6922e-08L48 6L41.531 12L40 10.59Z" fill="#B9B6C8"/>
<path d="M48 10.59L52.9488 6L48 1.41L49.531 -6.6922e-08L56 6L49.531 12L48 10.59Z" fill="#B9B6C8"/>
</svg>
