<svg width="129" height="129" viewBox="0 0 129 129" fill="none" xmlns="http://www.w3.org/2000/svg">
<path fill-rule="evenodd" clip-rule="evenodd" d="M11.5789 64.5783C11.5789 35.3297 35.3634 11.5566 64.5698 11.5566C93.7762 11.5566 117.561 35.3297 117.561 64.5783C117.561 93.7654 93.7762 117.539 64.5698 117.539C35.3634 117.539 11.5789 93.7654 11.5789 64.5783ZM84.0065 69.9412C84.5691 69.3788 85.2852 68.5097 85.4387 68.3052C86.2571 67.2316 86.6663 65.9023 86.6663 64.5782C86.6663 63.0905 86.2059 61.7101 85.3364 60.5853C85.2651 60.5141 85.1256 60.3622 84.9437 60.1643C84.6035 59.794 84.1151 59.2624 83.6485 58.796C79.4542 54.297 68.5082 46.935 62.7794 44.6855C61.9099 44.3327 59.7105 43.5607 58.534 43.5096C57.4087 43.5096 56.3346 43.7652 55.3116 44.2765C54.0329 44.9922 53.0099 46.117 52.4472 47.4462C52.0892 48.3665 51.5265 51.1272 51.5265 51.1784C50.9639 54.1947 50.657 59.1027 50.657 64.5219C50.657 69.6907 50.9639 74.389 51.4242 77.4565C51.4369 77.4692 51.4809 77.6886 51.5493 78.0294C51.7571 79.0656 52.19 81.2241 52.6518 82.1089C53.7771 84.2561 55.9766 85.5854 58.3294 85.5854H58.534C60.0685 85.5343 63.2909 84.205 63.2909 84.1539C68.7128 81.9044 79.403 74.9003 83.6996 70.2479L84.0065 69.9412Z" fill="white"/>
</svg>
