<svg width="26" height="26" viewBox="0 0 26 26" fill="none" xmlns="http://www.w3.org/2000/svg">
<path d="M6.03468 9.18281L6.79542 9.37933L6.03468 9.18281ZM9.15458 6.24633L9.30258 7.01798L9.15458 6.24633ZM10.9951 14.0182L10.7734 13.2644L10.9951 14.0182ZM11.9817 15.0048L11.2279 14.7831L11.9817 15.0048ZM16.8171 19.9653L17.0137 20.726L16.8171 19.9653ZM19.7536 16.8453L20.5253 16.9933L19.7536 16.8453ZM21.3178 8.68943L20.5461 8.54144V8.54144L21.3178 8.68943ZM17.3105 4.68216L17.1625 3.9105L17.3105 4.68216ZM7.21506 17.6737C6.90822 17.9806 6.90822 18.478 7.21506 18.7849C7.5219 19.0917 8.01939 19.0917 8.32623 18.7849L7.21506 17.6737ZM9.58693 17.5242C9.89377 17.2173 9.89377 16.7199 9.58693 16.413C9.28009 16.1062 8.7826 16.1062 8.47576 16.413L9.58693 17.5242ZM7.84541 20.8255C7.53857 21.1323 7.53857 21.6298 7.84541 21.9366C8.15225 22.2435 8.64974 22.2435 8.95658 21.9366L7.84541 20.8255ZM10.2173 20.6759C10.5241 20.3691 10.5241 19.8716 10.2173 19.5648C9.91044 19.2579 9.41295 19.2579 9.10611 19.5648L10.2173 20.6759ZM4.06331 17.0434C3.75647 17.3502 3.75647 17.8477 4.06331 18.1545C4.37015 18.4614 4.86764 18.4614 5.17448 18.1545L4.06331 17.0434ZM6.43518 16.8938C6.74202 16.587 6.74202 16.0895 6.43518 15.7827C6.12834 15.4758 5.63085 15.4758 5.32401 15.7827L6.43518 16.8938ZM20.5461 8.54144L18.982 16.6974L20.5253 16.9933L22.0894 8.83742L20.5461 8.54144ZM9.30258 7.01798L17.4585 5.45381L17.1625 3.9105L9.00659 5.47468L9.30258 7.01798ZM6.79542 9.37933C7.10646 8.17528 8.08609 7.25128 9.30258 7.01798L9.00659 5.47468C7.18883 5.8233 5.73564 7.19899 5.27394 8.98629L6.79542 9.37933ZM10.7734 13.2644C8.40857 13.9599 6.17365 11.7863 6.79542 9.37933L5.27394 8.98629C4.35219 12.5545 7.66111 15.8177 11.2168 14.772L10.7734 13.2644ZM12.7355 15.2265C13.0884 14.0264 11.9735 12.9115 10.7734 13.2644L11.2168 14.772C11.2222 14.7704 11.2241 14.7706 11.2232 14.7706C11.2224 14.7706 11.2213 14.7705 11.2204 14.7702C11.2192 14.7699 11.2218 14.7704 11.2257 14.7743C11.2295 14.7781 11.23 14.7808 11.2297 14.7795C11.2295 14.7786 11.2293 14.7775 11.2293 14.7768C11.2293 14.7758 11.2295 14.7777 11.2279 14.7831L12.7355 15.2265ZM16.6206 19.2045C14.2137 19.8263 12.0401 17.5914 12.7355 15.2265L11.2279 14.7831C10.1823 18.3388 13.4455 21.6478 17.0137 20.726L16.6206 19.2045ZM18.982 16.6974C18.7487 17.9138 17.8247 18.8935 16.6206 19.2045L17.0137 20.726C18.801 20.2643 20.1767 18.8111 20.5253 16.9933L18.982 16.6974ZM22.0894 8.83742C22.6498 5.91542 20.0845 3.35011 17.1625 3.9105L17.4585 5.45381C19.2897 5.10262 20.8973 6.71027 20.5461 8.54144L22.0894 8.83742ZM8.32623 18.7849L9.58693 17.5242L8.47576 16.413L7.21506 17.6737L8.32623 18.7849ZM8.95658 21.9366L10.2173 20.6759L9.10611 19.5648L7.84541 20.8255L8.95658 21.9366ZM5.17448 18.1545L6.43518 16.8938L5.32401 15.7827L4.06331 17.0434L5.17448 18.1545Z" fill="#F6EFFF"/>
</svg>
