<svg width="76" height="76" viewBox="0 0 76 76" fill="none" xmlns="http://www.w3.org/2000/svg">
<path d="M9.67236 50.6554H7.32336H9.67236ZM12.0214 47.5235C12.0214 46.2261 10.9697 45.1745 9.67236 45.1745C8.37505 45.1745 7.32336 46.2261 7.32336 47.5235H12.0214ZM28.4644 68.6644C29.7617 68.6644 30.8134 67.6128 30.8134 66.3154C30.8134 65.0181 29.7617 63.9664 28.4644 63.9664V68.6644ZM25.3324 66.3154V63.9664V66.3154ZM28.4644 12.2885C29.7617 12.2885 30.8134 11.2368 30.8134 9.93945C30.8134 8.64214 29.7617 7.59045 28.4644 7.59045V12.2885ZM7.32336 28.7315C7.32336 30.0288 8.37505 31.0805 9.67236 31.0805C10.9697 31.0805 12.0214 30.0288 12.0214 28.7315H7.32336ZM66.0484 25.5995H63.6994H66.0484ZM63.6994 28.7315C63.6994 30.0288 64.751 31.0805 66.0484 31.0805C67.3457 31.0805 68.3974 30.0288 68.3974 28.7315H63.6994ZM47.2564 7.59045C45.959 7.59045 44.9074 8.64214 44.9074 9.93945C44.9074 11.2368 45.959 12.2885 47.2564 12.2885V7.59045ZM50.3884 9.93945V7.59045V9.93945ZM50.3884 66.3154V63.9664V66.3154ZM47.2564 63.9664C45.959 63.9664 44.9074 65.0181 44.9074 66.3154C44.9074 67.6128 45.959 68.6644 47.2564 68.6644V63.9664ZM68.3974 47.5235C68.3974 46.2261 67.3457 45.1745 66.0484 45.1745C64.751 45.1745 63.6994 46.2261 63.6994 47.5235H68.3974ZM66.0484 50.6554H68.3974H66.0484ZM12.0214 50.6554L12.0214 47.5235H7.32336L7.32336 50.6554H12.0214ZM28.4644 63.9664H25.3324V68.6644H28.4644V63.9664ZM7.32336 50.6554C7.32336 60.6015 15.3863 68.6644 25.3324 68.6644V63.9664C17.9809 63.9664 12.0214 58.0069 12.0214 50.6554H7.32336ZM25.3324 12.2885H28.4644V7.59045H25.3324V12.2885ZM12.0214 28.7315V25.5995H7.32336V28.7315H12.0214ZM25.3324 7.59045C15.3863 7.59045 7.32336 15.6534 7.32336 25.5995H12.0214C12.0214 18.248 17.9809 12.2885 25.3324 12.2885V7.59045ZM63.6994 25.5995V28.7315H68.3974V25.5995H63.6994ZM47.2564 12.2885L50.3884 12.2885V7.59045L47.2564 7.59045V12.2885ZM68.3974 25.5995C68.3974 15.6534 60.3345 7.59045 50.3884 7.59045V12.2885C57.7398 12.2885 63.6994 18.248 63.6994 25.5995H68.3974ZM50.3884 63.9664H47.2564V68.6644H50.3884V63.9664ZM63.6994 47.5235V50.6554H68.3974V47.5235H63.6994ZM50.3884 68.6644C60.3345 68.6644 68.3974 60.6015 68.3974 50.6554H63.6994C63.6994 58.0069 57.7398 63.9664 50.3884 63.9664V68.6644ZM25.3324 29.5145C23.7895 29.5145 22.8687 29.5095 22.2087 29.4207C21.9063 29.3801 21.7548 29.3322 21.6866 29.3041C21.6708 29.2976 21.6604 29.2925 21.6544 29.2894C21.6484 29.2863 21.6457 29.2845 21.6455 29.2844C21.6453 29.2842 21.646 29.2847 21.6471 29.2856C21.6482 29.2865 21.6481 29.2865 21.6467 29.2851L18.3247 32.6071C19.2926 33.575 20.4693 33.9272 21.5827 34.0768C22.6285 34.2174 23.9223 34.2125 25.3324 34.2125V29.5145ZM16.7194 25.5995C16.7194 27.0095 16.7144 28.3033 16.855 29.3491C17.0047 30.4625 17.3569 31.6392 18.3247 32.6071L21.6467 29.2851C21.6453 29.2837 21.6453 29.2836 21.6462 29.2847C21.6471 29.2858 21.6476 29.2866 21.6475 29.2863C21.6473 29.2861 21.6456 29.2834 21.6424 29.2775C21.6393 29.2714 21.6342 29.261 21.6277 29.2452C21.5996 29.177 21.5517 29.0255 21.5111 28.7231C21.4224 28.0631 21.4174 27.1423 21.4174 25.5995H16.7194ZM29.2474 25.5995C29.2474 27.1423 29.2424 28.0631 29.1536 28.7231C29.113 29.0255 29.0651 29.177 29.037 29.2452C29.0305 29.261 29.0255 29.2714 29.0223 29.2775C29.0192 29.2834 29.0174 29.2861 29.0173 29.2863C29.0171 29.2866 29.0176 29.2858 29.0185 29.2847C29.0194 29.2836 29.0195 29.2837 29.018 29.2851L32.34 32.6071C33.3079 31.6392 33.6601 30.4625 33.8097 29.3491C33.9504 28.3033 33.9454 27.0095 33.9454 25.5995H29.2474ZM25.3324 34.2125C26.7424 34.2125 28.0362 34.2174 29.082 34.0768C30.1954 33.9271 31.3722 33.575 32.34 32.6071L29.018 29.2851C29.0166 29.2865 29.0165 29.2865 29.0176 29.2856C29.0187 29.2847 29.0195 29.2842 29.0192 29.2844C29.019 29.2845 29.0163 29.2863 29.0104 29.2894C29.0043 29.2925 28.9939 29.2976 28.9781 29.3041C28.9099 29.3322 28.7584 29.3801 28.456 29.4207C27.796 29.5095 26.8752 29.5145 25.3324 29.5145V34.2125ZM25.3324 21.6845C26.8752 21.6845 27.796 21.6894 28.456 21.7782C28.7584 21.8188 28.9099 21.8667 28.9781 21.8948C28.9939 21.9013 29.0043 21.9064 29.0104 21.9095C29.0163 21.9126 29.019 21.9144 29.0192 21.9145C29.0195 21.9147 29.0187 21.9142 29.0176 21.9133C29.0165 21.9124 29.0166 21.9124 29.018 21.9138L32.34 18.5918C31.3722 17.6239 30.1954 17.2718 29.082 17.1221C28.0362 16.9815 26.7424 16.9865 25.3324 16.9865V21.6845ZM33.9454 25.5995C33.9454 24.1894 33.9504 22.8956 33.8097 21.8498C33.6601 20.7364 33.3079 19.5597 32.34 18.5918L29.018 21.9138C29.0195 21.9152 29.0194 21.9153 29.0185 21.9142C29.0176 21.9131 29.0171 21.9124 29.0173 21.9126C29.0174 21.9128 29.0192 21.9155 29.0223 21.9215C29.0255 21.9275 29.0305 21.9379 29.037 21.9537C29.0651 22.0219 29.113 22.1734 29.1536 22.4758C29.2424 23.1358 29.2474 24.0566 29.2474 25.5995H33.9454ZM25.3324 16.9865C23.9223 16.9865 22.6285 16.9815 21.5827 17.1221C20.4693 17.2718 19.2926 17.6239 18.3247 18.5918L21.6467 21.9138C21.6481 21.9124 21.6482 21.9124 21.6471 21.9133C21.646 21.9142 21.6453 21.9147 21.6455 21.9145C21.6457 21.9144 21.6484 21.9126 21.6544 21.9095C21.6604 21.9064 21.6708 21.9013 21.6866 21.8948C21.7548 21.8667 21.9063 21.8188 22.2087 21.7782C22.8687 21.6894 23.7895 21.6845 25.3324 21.6845V16.9865ZM21.4174 25.5995C21.4174 24.0566 21.4224 23.1358 21.5111 22.4758C21.5517 22.1734 21.5996 22.0219 21.6277 21.9537C21.6342 21.9379 21.6393 21.9275 21.6424 21.9215C21.6456 21.9155 21.6473 21.9128 21.6475 21.9126C21.6476 21.9124 21.6471 21.9131 21.6462 21.9142C21.6453 21.9153 21.6453 21.9152 21.6467 21.9138L18.3247 18.5918C17.3568 19.5597 17.0047 20.7364 16.855 21.8498C16.7144 22.8956 16.7194 24.1894 16.7194 25.5995H21.4174ZM50.3884 29.5145C48.8455 29.5145 47.9247 29.5095 47.2647 29.4207C46.9623 29.3801 46.8108 29.3322 46.7426 29.3041C46.7268 29.2976 46.7164 29.2925 46.7104 29.2894C46.7044 29.2863 46.7017 29.2845 46.7015 29.2844C46.7013 29.2842 46.702 29.2847 46.7031 29.2856C46.7042 29.2865 46.7041 29.2865 46.7027 29.2851L43.3807 32.6071C44.3486 33.575 45.5253 33.9271 46.6387 34.0768C47.6845 34.2174 48.9783 34.2125 50.3884 34.2125V29.5145ZM41.7754 25.5995C41.7754 27.0095 41.7704 28.3033 41.911 29.3491C42.0607 30.4625 42.4128 31.6392 43.3807 32.6071L46.7027 29.2851C46.7013 29.2837 46.7013 29.2836 46.7022 29.2847C46.7031 29.2858 46.7036 29.2866 46.7035 29.2863C46.7033 29.2861 46.7015 29.2834 46.6984 29.2775C46.6953 29.2714 46.6902 29.261 46.6837 29.2452C46.6556 29.177 46.6077 29.0255 46.5671 28.7231C46.4783 28.0631 46.4734 27.1423 46.4734 25.5995H41.7754ZM54.3034 25.5995C54.3034 27.1423 54.2984 28.0631 54.2096 28.7231C54.169 29.0255 54.1211 29.177 54.093 29.2452C54.0865 29.261 54.0815 29.2714 54.0783 29.2775C54.0752 29.2834 54.0734 29.2861 54.0733 29.2863C54.0731 29.2866 54.0736 29.2858 54.0745 29.2847C54.0754 29.2836 54.0755 29.2837 54.074 29.2851L57.396 32.6071C58.3639 31.6392 58.7161 30.4625 58.8657 29.3491C59.0063 28.3033 59.0014 27.0095 59.0014 25.5995H54.3034ZM50.3884 34.2125C51.7984 34.2125 53.0922 34.2174 54.138 34.0768C55.2514 33.9271 56.4282 33.575 57.396 32.6071L54.074 29.2851C54.0726 29.2865 54.0725 29.2865 54.0736 29.2856C54.0747 29.2847 54.0755 29.2842 54.0752 29.2844C54.075 29.2845 54.0723 29.2863 54.0664 29.2894C54.0603 29.2925 54.0499 29.2976 54.0341 29.3041C53.9659 29.3322 53.8144 29.3801 53.512 29.4207C52.852 29.5095 51.9312 29.5145 50.3884 29.5145V34.2125ZM50.3884 21.6845C51.9312 21.6845 52.852 21.6894 53.512 21.7782C53.8144 21.8188 53.9659 21.8667 54.0341 21.8948C54.0499 21.9013 54.0603 21.9064 54.0664 21.9095C54.0723 21.9126 54.075 21.9144 54.0752 21.9145C54.0755 21.9147 54.0747 21.9142 54.0736 21.9133C54.0725 21.9124 54.0726 21.9124 54.074 21.9138L57.396 18.5918C56.4282 17.6239 55.2514 17.2718 54.138 17.1221C53.0922 16.9815 51.7984 16.9865 50.3884 16.9865V21.6845ZM59.0014 25.5995C59.0014 24.1894 59.0063 22.8956 58.8657 21.8498C58.7161 20.7364 58.3639 19.5597 57.396 18.5918L54.074 21.9138C54.0755 21.9152 54.0754 21.9153 54.0745 21.9142C54.0736 21.9131 54.0731 21.9124 54.0733 21.9126C54.0734 21.9128 54.0752 21.9155 54.0783 21.9215C54.0815 21.9275 54.0865 21.9379 54.093 21.9537C54.1211 22.0219 54.169 22.1734 54.2096 22.4758C54.2984 23.1358 54.3034 24.0566 54.3034 25.5995H59.0014ZM50.3884 16.9865C48.9783 16.9865 47.6845 16.9815 46.6387 17.1221C45.5253 17.2718 44.3486 17.6239 43.3807 18.5918L46.7027 21.9138C46.7041 21.9124 46.7042 21.9124 46.7031 21.9133C46.702 21.9142 46.7013 21.9147 46.7015 21.9145C46.7017 21.9144 46.7044 21.9126 46.7104 21.9095C46.7164 21.9064 46.7268 21.9013 46.7426 21.8948C46.8108 21.8667 46.9623 21.8188 47.2647 21.7782C47.9247 21.6894 48.8455 21.6845 50.3884 21.6845V16.9865ZM46.4734 25.5995C46.4734 24.0566 46.4783 23.1358 46.5671 22.4758C46.6077 22.1734 46.6556 22.0219 46.6837 21.9537C46.6902 21.9379 46.6953 21.9275 46.6984 21.9215C46.7015 21.9155 46.7033 21.9128 46.7035 21.9126C46.7036 21.9124 46.7031 21.9131 46.7022 21.9142C46.7013 21.9153 46.7013 21.9152 46.7027 21.9138L43.3807 18.5918C42.4128 19.5597 42.0607 20.7364 41.911 21.8498C41.7704 22.8956 41.7754 24.1894 41.7754 25.5995H46.4734ZM50.3884 54.5704C48.8455 54.5704 47.9247 54.5655 47.2647 54.4767C46.9623 54.4361 46.8108 54.3882 46.7426 54.3601C46.7268 54.3536 46.7164 54.3485 46.7104 54.3454C46.7044 54.3423 46.7017 54.3405 46.7015 54.3404C46.7013 54.3402 46.702 54.3407 46.7031 54.3416C46.7042 54.3425 46.7041 54.3425 46.7027 54.3411L43.3807 57.6631C44.3486 58.631 45.5253 58.9831 46.6387 59.1328C47.6845 59.2734 48.9783 59.2684 50.3884 59.2684V54.5704ZM41.7754 50.6554C41.7754 52.0655 41.7704 53.3593 41.911 54.4051C42.0607 55.5185 42.4128 56.6952 43.3807 57.6631L46.7027 54.3411C46.7013 54.3397 46.7013 54.3396 46.7022 54.3407C46.7031 54.3418 46.7036 54.3425 46.7035 54.3423C46.7033 54.3421 46.7015 54.3394 46.6984 54.3334C46.6953 54.3274 46.6902 54.317 46.6837 54.3012C46.6556 54.233 46.6077 54.0815 46.5671 53.7791C46.4783 53.1191 46.4734 52.1983 46.4734 50.6554H41.7754ZM54.3034 50.6554C54.3034 52.1983 54.2984 53.1191 54.2096 53.7791C54.169 54.0815 54.1211 54.233 54.093 54.3012C54.0865 54.317 54.0815 54.3274 54.0783 54.3334C54.0752 54.3394 54.0734 54.3421 54.0733 54.3423C54.0731 54.3425 54.0736 54.3418 54.0745 54.3407C54.0754 54.3396 54.0755 54.3397 54.074 54.3411L57.396 57.6631C58.3639 56.6952 58.7161 55.5185 58.8657 54.4051C59.0063 53.3593 59.0014 52.0655 59.0014 50.6554H54.3034ZM50.3884 59.2684C51.7984 59.2684 53.0922 59.2734 54.138 59.1328C55.2514 58.9831 56.4282 58.631 57.396 57.6631L54.074 54.3411C54.0726 54.3425 54.0725 54.3425 54.0736 54.3416C54.0747 54.3407 54.0755 54.3402 54.0752 54.3404C54.075 54.3405 54.0723 54.3423 54.0664 54.3454C54.0603 54.3485 54.0499 54.3536 54.0341 54.3601C53.9659 54.3882 53.8144 54.4361 53.512 54.4767C52.852 54.5655 51.9312 54.5704 50.3884 54.5704V59.2684ZM50.3884 46.7404C51.9312 46.7404 52.852 46.7454 53.512 46.8342C53.8144 46.8748 53.9659 46.9227 54.0341 46.9508C54.0499 46.9573 54.0603 46.9624 54.0664 46.9655C54.0723 46.9686 54.075 46.9704 54.0752 46.9705C54.0755 46.9707 54.0747 46.9702 54.0736 46.9693C54.0725 46.9684 54.0726 46.9684 54.074 46.9698L57.396 43.6478C56.4282 42.6799 55.2514 42.3278 54.138 42.1781C53.0922 42.0375 51.7984 42.0424 50.3884 42.0424V46.7404ZM59.0014 50.6554C59.0014 49.2454 59.0063 47.9516 58.8657 46.9058C58.7161 45.7924 58.3639 44.6157 57.396 43.6478L54.074 46.9698C54.0755 46.9712 54.0754 46.9713 54.0745 46.9702C54.0736 46.9691 54.0731 46.9684 54.0733 46.9686C54.0734 46.9688 54.0752 46.9715 54.0783 46.9775C54.0815 46.9835 54.0865 46.9939 54.093 47.0097C54.1211 47.0779 54.169 47.2294 54.2096 47.5318C54.2984 48.1918 54.3034 49.1126 54.3034 50.6554H59.0014ZM50.3884 42.0424C48.9783 42.0424 47.6845 42.0375 46.6387 42.1781C45.5253 42.3278 44.3486 42.6799 43.3807 43.6478L46.7027 46.9698C46.7041 46.9684 46.7042 46.9684 46.7031 46.9693C46.702 46.9702 46.7013 46.9707 46.7015 46.9705C46.7017 46.9704 46.7044 46.9686 46.7104 46.9655C46.7164 46.9624 46.7268 46.9573 46.7426 46.9508C46.8108 46.9227 46.9623 46.8748 47.2647 46.8342C47.9247 46.7454 48.8455 46.7404 50.3884 46.7404V42.0424ZM46.4734 50.6554C46.4734 49.1126 46.4783 48.1918 46.5671 47.5318C46.6077 47.2294 46.6556 47.0779 46.6837 47.0097C46.6902 46.9939 46.6953 46.9835 46.6984 46.9775C46.7015 46.9715 46.7033 46.9688 46.7035 46.9686C46.7036 46.9684 46.7031 46.9691 46.7022 46.9702C46.7013 46.9713 46.7013 46.9712 46.7027 46.9698L43.3807 43.6478C42.4128 44.6157 42.0607 45.7924 41.911 46.9058C41.7704 47.9516 41.7754 49.2454 41.7754 50.6554H46.4734Z" fill="#F6EFFF"/>
</svg>
