<svg width="14" height="18" viewBox="0 0 14 18" fill="none" xmlns="http://www.w3.org/2000/svg">
<path d="M3.53988 0.666687H1.87321C1.43118 0.666687 1.00726 0.842282 0.694699 1.15484C0.382138 1.4674 0.206543 1.89133 0.206543 2.33335V15.6667C0.206543 16.1087 0.382138 16.5326 0.694699 16.8452C1.00726 17.1578 1.43118 17.3334 1.87321 17.3334H3.53988C3.9819 17.3334 4.40583 17.1578 4.71839 16.8452C5.03095 16.5326 5.20654 16.1087 5.20654 15.6667V2.33335C5.20654 1.89133 5.03095 1.4674 4.71839 1.15484C4.40583 0.842282 3.9819 0.666687 3.53988 0.666687ZM11.8732 0.666687H10.2065C9.76451 0.666687 9.34059 0.842282 9.02803 1.15484C8.71547 1.4674 8.53988 1.89133 8.53988 2.33335V15.6667C8.53988 16.1087 8.71547 16.5326 9.02803 16.8452C9.34059 17.1578 9.76451 17.3334 10.2065 17.3334H11.8732C12.3152 17.3334 12.7392 17.1578 13.0517 16.8452C13.3643 16.5326 13.5399 16.1087 13.5399 15.6667V2.33335C13.5399 1.89133 13.3643 1.4674 13.0517 1.15484C12.7392 0.842282 12.3152 0.666687 11.8732 0.666687Z" fill="white"/>
</svg>
