<svg width="9" height="12" viewBox="0 0 9 12" fill="none" xmlns="http://www.w3.org/2000/svg">
<path d="M2.025 0H1.0125C0.743968 0 0.486435 0.121898 0.296555 0.338877C0.106674 0.555857 0 0.850144 0 1.157V10.413C0 10.7199 0.106674 11.0141 0.296555 11.2311C0.486435 11.4481 0.743968 11.57 1.0125 11.57H2.025C2.29353 11.57 2.55106 11.4481 2.74095 11.2311C2.93083 11.0141 3.0375 10.7199 3.0375 10.413V1.157C3.0375 0.850144 2.93083 0.555857 2.74095 0.338877C2.55106 0.121898 2.29353 0 2.025 0ZM7.0875 0H6.075C5.80647 0 5.54894 0.121898 5.35905 0.338877C5.16917 0.555857 5.0625 0.850144 5.0625 1.157V10.413C5.0625 10.7199 5.16917 11.0141 5.35905 11.2311C5.54894 11.4481 5.80647 11.57 6.075 11.57H7.0875C7.35603 11.57 7.61357 11.4481 7.80345 11.2311C7.99333 11.0141 8.1 10.7199 8.1 10.413V1.157C8.1 0.850144 7.99333 0.555857 7.80345 0.338877C7.61357 0.121898 7.35603 0 7.0875 0Z" fill="#084C49"/>
</svg>
