<svg width="14" height="14" viewBox="0 0 14 14" fill="none" xmlns="http://www.w3.org/2000/svg">
<path d="M6.99977 10.0916L4.84144 11.7395C4.73449 11.827 4.61783 11.8682 4.49144 11.8632C4.36505 11.8585 4.25324 11.8222 4.15602 11.7541C4.0588 11.686 3.98355 11.5937 3.93027 11.477C3.87661 11.3604 3.87408 11.234 3.92269 11.0979L4.75394 8.39993L2.63936 6.89785C2.52269 6.82007 2.44977 6.71799 2.42061 6.5916C2.39144 6.46521 2.3963 6.34855 2.43519 6.2416C2.47408 6.13466 2.54213 6.03977 2.63936 5.95693C2.73658 5.87449 2.85324 5.83327 2.98936 5.83327H5.59977L6.44561 3.03327C6.49422 2.89716 6.56966 2.79255 6.67194 2.71944C6.77383 2.64671 6.88311 2.61035 6.99977 2.61035C7.11644 2.61035 7.22572 2.64671 7.32761 2.71944C7.42988 2.79255 7.50533 2.89716 7.55394 3.03327L8.39977 5.83327H11.0102C11.1463 5.83327 11.263 5.87449 11.3602 5.95693C11.4574 6.03977 11.5255 6.13466 11.5644 6.2416C11.6032 6.34855 11.6081 6.46521 11.5789 6.5916C11.5498 6.71799 11.4769 6.82007 11.3602 6.89785L9.24561 8.39993L10.0769 11.0979C10.1255 11.234 10.1231 11.3604 10.0699 11.477C10.0162 11.5937 9.94074 11.686 9.84352 11.7541C9.7463 11.8222 9.63449 11.8585 9.5081 11.8632C9.38172 11.8682 9.26505 11.827 9.15811 11.7395L6.99977 10.0916Z" fill="#EE5530"/>
</svg>
