<svg width="14" height="14" viewBox="0 0 14 14" fill="none" xmlns="http://www.w3.org/2000/svg">
<path d="M6.99977 10.0917L4.84144 11.7396C4.73449 11.8271 4.61783 11.8683 4.49144 11.8632C4.36505 11.8586 4.25324 11.8222 4.15602 11.7542C4.0588 11.6861 3.98355 11.5937 3.93027 11.4771C3.87661 11.3604 3.87408 11.234 3.92269 11.0979L4.75394 8.4L2.63936 6.89791C2.52269 6.82013 2.44977 6.71805 2.42061 6.59166C2.39144 6.46527 2.3963 6.34861 2.43519 6.24166C2.47408 6.13472 2.54213 6.03983 2.63936 5.957C2.73658 5.87455 2.85324 5.83333 2.98936 5.83333H5.59977L6.44561 3.03333C6.49422 2.89722 6.56966 2.79261 6.67194 2.7195C6.77383 2.64677 6.88311 2.61041 6.99977 2.61041C7.11644 2.61041 7.22572 2.64677 7.32761 2.7195C7.42988 2.79261 7.50533 2.89722 7.55394 3.03333L8.39977 5.83333H11.0102C11.1463 5.83333 11.263 5.87455 11.3602 5.957C11.4574 6.03983 11.5255 6.13472 11.5644 6.24166C11.6032 6.34861 11.6081 6.46527 11.5789 6.59166C11.5498 6.71805 11.4769 6.82013 11.3602 6.89791L9.24561 8.4L10.0769 11.0979C10.1255 11.234 10.1231 11.3604 10.0699 11.4771C10.0162 11.5937 9.94074 11.6861 9.84352 11.7542C9.7463 11.8222 9.63449 11.8586 9.5081 11.8632C9.38172 11.8683 9.26505 11.8271 9.15811 11.7396L6.99977 10.0917Z" fill="#8EDB11"/>
</svg>
