<svg width="34" height="34" viewBox="0 0 34 34" fill="none" xmlns="http://www.w3.org/2000/svg">
<path fill-rule="evenodd" clip-rule="evenodd" d="M10.2709 8.49998C10.2709 4.78356 13.2837 1.77081 17.0001 1.77081C20.7165 1.77081 23.7292 4.78356 23.7292 8.49998V14.1666C23.7292 17.8831 20.7165 20.8958 17.0001 20.8958C13.2837 20.8958 10.2709 17.8831 10.2709 14.1666V8.49998ZM17.0001 3.89581C14.4573 3.89581 12.3959 5.95717 12.3959 8.49998V14.1666C12.3959 16.7095 14.4573 18.7708 17.0001 18.7708C19.5429 18.7708 21.6042 16.7095 21.6042 14.1666V8.49998C21.6042 5.95717 19.5429 3.89581 17.0001 3.89581ZM15.5398 9.96025L14.4244 10.2391C13.8552 10.3814 13.2783 10.0353 13.136 9.46601C12.9937 8.89673 13.3398 8.31986 13.9091 8.17754L15.0244 7.89869C16.3216 7.57441 17.6786 7.57441 18.9757 7.89869L20.0911 8.17754C20.6604 8.31986 21.0065 8.89672 20.8642 9.46601C20.7219 10.0353 20.145 10.3814 19.5757 10.2391L18.4603 9.96025C17.5016 9.72056 16.4986 9.72056 15.5398 9.96025ZM15.5441 15.0636L15.2111 15.1746C14.6544 15.3602 14.0527 15.0593 13.8671 14.5026C13.6815 13.9459 13.9824 13.3442 14.5391 13.1587L14.8721 13.0477C16.2534 12.5872 17.7468 12.5872 19.128 13.0477L19.4611 13.1587C20.0178 13.3442 20.3186 13.9459 20.1331 14.5026C19.9475 15.0593 19.3458 15.3602 18.7891 15.1746L18.456 15.0636C17.511 14.7486 16.4892 14.7486 15.5441 15.0636ZM5.66675 13.1041C6.25355 13.1041 6.72925 13.5798 6.72925 14.1666C6.72925 19.8391 11.3277 24.4375 17.0001 24.4375C22.6725 24.4375 27.2709 19.8391 27.2709 14.1666C27.2709 13.5798 27.7466 13.1041 28.3334 13.1041C28.9202 13.1041 29.3959 13.5798 29.3959 14.1666C29.3959 20.6548 24.4112 25.9786 18.0626 26.5176V29.6834C18.3692 29.7237 18.6741 29.7816 18.9757 29.857L20.0911 30.1359C20.6604 30.2782 21.0065 30.8551 20.8642 31.4243C20.7219 31.9936 20.145 32.3397 19.5757 32.1974L18.4603 31.9186C17.981 31.7987 17.4905 31.7388 17.0001 31.7388C16.5096 31.7388 16.0192 31.7987 15.5398 31.9186L14.4244 32.1974C13.8552 32.3397 13.2783 31.9936 13.136 31.4243C12.9937 30.8551 13.3398 30.2782 13.9091 30.1359L15.0244 29.857C15.3261 29.7816 15.631 29.7237 15.9376 29.6834V26.5176C9.58893 25.9786 4.60425 20.6548 4.60425 14.1666C4.60425 13.5798 5.07995 13.1041 5.66675 13.1041Z" fill="white"/>
</svg>
