<svg width="9" height="9" viewBox="0 0 9 9" fill="none" xmlns="http://www.w3.org/2000/svg">
<g clip-path="url(#clip0_757_10628)">
<path d="M3.03684 7.83396L2.76973 8.26618L2.76973 8.26618L3.03684 7.83396ZM2.8836 7.74611L3.07066 7.27371L3.07066 7.27371L2.8836 7.74611ZM2.57112 7.75258L2.6986 8.24442L2.57112 7.75258ZM2.71664 7.72089L2.75579 8.22747L2.71664 7.72089ZM1.25715 6.43861L0.76531 6.31113L1.25715 6.43861ZM1.28884 6.29296L1.79544 6.33182L1.28884 6.29296ZM1.17549 5.97307L0.743943 6.24126L0.743943 6.24126L1.17549 5.97307ZM1.26333 6.12552L0.791297 6.31352L1.26333 6.12552ZM1.10835 7.31602L1.60623 7.21469L1.60623 7.21469L1.10835 7.31602ZM1.69371 7.90139L1.79504 7.4035L1.69371 7.90139ZM3.02077 4.68859C2.74016 4.68859 2.51268 4.91607 2.51268 5.19668C2.51268 5.47729 2.74016 5.70477 3.02077 5.70477V4.68859ZM6.02077 5.70477C6.30138 5.70477 6.52886 5.47729 6.52886 5.19668C6.52886 4.91607 6.30138 4.68859 6.02077 4.68859V5.70477ZM3.02077 3.18859C2.74016 3.18859 2.51268 3.41607 2.51268 3.69668C2.51268 3.97729 2.74016 4.20477 3.02077 4.20477V3.18859ZM6.02077 4.20477C6.30138 4.20477 6.52886 3.97729 6.52886 3.69668C6.52886 3.41607 6.30138 3.18859 6.02077 3.18859V4.20477ZM2.21736 2.20762C3.4834 0.941579 5.53606 0.941579 6.80211 2.20762L7.52066 1.48908C5.85777 -0.173812 3.1617 -0.173812 1.49881 1.48908L2.21736 2.20762ZM6.80211 2.20762C8.06815 3.47367 8.06815 5.52633 6.80211 6.79238L7.52066 7.51092C9.18354 5.84804 9.18354 3.15196 7.52066 1.48908L6.80211 2.20762ZM1.60703 5.70489C1.23803 5.11112 1.1882 4.44626 1.3374 3.81139C1.48836 3.16905 1.83796 2.58702 2.21736 2.20762L1.49881 1.48908C0.990053 1.99783 0.543768 2.74666 0.348174 3.5789C0.150826 4.41861 0.203764 5.37204 0.743943 6.24126L1.60703 5.70489ZM6.80211 6.79238C6.44242 7.15206 5.86123 7.5024 5.21126 7.65788C4.56839 7.81167 3.89595 7.76759 3.30394 7.40174L2.76973 8.26618C3.6439 8.80639 4.60779 8.8471 5.44768 8.64618C6.28048 8.44696 7.02847 8.00311 7.52066 7.51092L6.80211 6.79238ZM3.30394 7.40174C3.24561 7.3657 3.15482 7.30704 3.07066 7.27371L2.69653 8.21851C2.68457 8.21378 2.67719 8.20999 2.67612 8.20944C2.67516 8.20894 2.67761 8.21018 2.68539 8.21471C2.7026 8.22474 2.7266 8.23952 2.76973 8.26618L3.30394 7.40174ZM2.6986 8.24442C2.71777 8.23945 2.73256 8.23562 2.74533 8.2324C2.75809 8.22917 2.76622 8.22721 2.77174 8.22597C2.78327 8.22336 2.77406 8.22605 2.75579 8.22747L2.6775 7.21431C2.58837 7.22119 2.49775 7.24672 2.44365 7.26075L2.6986 8.24442ZM3.07066 7.27371C2.93986 7.22192 2.81777 7.20347 2.6775 7.21431L2.75579 8.22747C2.75928 8.2272 2.7464 8.22841 2.72581 8.2253C2.70522 8.22218 2.69327 8.21722 2.69653 8.21851L3.07066 7.27371ZM1.74899 6.56609C1.76302 6.51194 1.78859 6.42122 1.79544 6.33182L0.782242 6.25409C0.783644 6.23582 0.786341 6.22659 0.78375 6.23805C0.782508 6.24354 0.780556 6.25166 0.777335 6.2644C0.774108 6.27717 0.77028 6.29195 0.76531 6.31113L1.74899 6.56609ZM0.743943 6.24126C0.770583 6.28413 0.785283 6.30786 0.795246 6.32487C0.799735 6.33253 0.80093 6.3349 0.800398 6.33387C0.799796 6.33271 0.796017 6.32537 0.791297 6.31352L1.73536 5.93753C1.70178 5.85321 1.64302 5.76279 1.60703 5.70489L0.743943 6.24126ZM1.79544 6.33182C1.80622 6.19131 1.7875 6.06846 1.73536 5.93753L0.791297 6.31352C0.792433 6.31637 0.787514 6.3045 0.784415 6.28416C0.781317 6.26383 0.782477 6.25103 0.782242 6.25409L1.79544 6.33182ZM0.76531 6.31113C0.705995 6.53997 0.654807 6.73638 0.624645 6.89633C0.594928 7.05392 0.57314 7.23396 0.610461 7.41735L1.60623 7.21469C1.60897 7.22818 1.60046 7.20535 1.62323 7.08463C1.64555 6.96627 1.68605 6.80891 1.74899 6.56609L0.76531 6.31113ZM2.44365 7.26075C2.20082 7.32369 2.04347 7.36419 1.9251 7.38651C1.80438 7.40927 1.78155 7.40076 1.79504 7.4035L1.59239 8.39927C1.77577 8.43659 1.95582 8.4148 2.11341 8.38509C2.27336 8.35493 2.46976 8.30374 2.6986 8.24442L2.44365 7.26075ZM0.610461 7.41735C0.711132 7.91201 1.09772 8.2986 1.59239 8.39927L1.79504 7.4035C1.69992 7.38415 1.62559 7.30981 1.60623 7.21469L0.610461 7.41735ZM3.02077 5.70477H6.02077V4.68859H3.02077V5.70477ZM3.02077 4.20477H6.02077V3.18859H3.02077V4.20477Z" fill="white"/>
</g>
<defs>
<clipPath id="clip0_757_10628">
<rect width="9" height="9" fill="white"/>
</clipPath>
</defs>
</svg>
