<svg width="39" height="39" viewBox="0 0 39 39" fill="none" xmlns="http://www.w3.org/2000/svg">
<path d="M24.375 19.4951C24.375 19.8184 24.2466 20.1283 24.018 20.3569C23.7895 20.5855 23.4795 20.7139 23.1562 20.7139C22.833 20.7139 22.523 20.5855 22.2945 20.3569C22.0659 20.1283 21.9375 19.8184 21.9375 19.4951C21.9375 19.1719 22.0659 18.8619 22.2945 18.6333C22.523 18.4048 22.833 18.2764 23.1562 18.2764C23.4795 18.2764 23.7895 18.4048 24.018 18.6333C24.2466 18.8619 24.375 19.1719 24.375 19.4951ZM18.5201 4.89937C18.3434 4.86404 18.161 4.86836 17.9861 4.91201C17.8112 4.95565 17.6482 5.03755 17.5088 5.15178C17.3694 5.26602 17.257 5.40976 17.1799 5.57264C17.1027 5.73553 17.0626 5.9135 17.0625 6.09375V32.8989C17.0626 33.0792 17.1027 33.2571 17.1799 33.42C17.257 33.5829 17.3694 33.7267 17.5088 33.8409C17.6482 33.9551 17.8112 34.037 17.9861 34.0807C18.161 34.1243 18.3434 34.1286 18.5201 34.0933L30.7076 31.6558C30.9838 31.6006 31.2323 31.4515 31.411 31.2337C31.5896 31.016 31.6873 30.7431 31.6875 30.4614V8.53125C31.6873 8.2496 31.5896 7.97671 31.411 7.75897C31.2323 7.54123 30.9838 7.39207 30.7076 7.33687L18.5201 4.89937ZM19.5 31.4121V7.58062L29.25 9.53062V29.4621L19.5 31.4121ZM14.625 31.6802V29.2427H9.75V9.75H14.625V7.3125H8.53125C8.20802 7.3125 7.89802 7.4409 7.66946 7.66946C7.4409 7.89802 7.3125 8.20801 7.3125 8.53125V30.4614C7.3125 30.7847 7.4409 31.0947 7.66946 31.3232C7.89802 31.5518 8.20802 31.6802 8.53125 31.6802H14.625Z" fill="white"/>
</svg>
