<svg width="29" height="29" viewBox="0 0 29 29" fill="none" xmlns="http://www.w3.org/2000/svg">
<mask id="mask0_294_8998" style="mask-type:luminance" maskUnits="userSpaceOnUse" x="0" y="0" width="29" height="29">
<path d="M0 1.90735e-06H29V29H0V1.90735e-06Z" fill="white"/>
</mask>
<g mask="url(#mask0_294_8998)">
<path d="M14.6053 9.94075C14.6053 12.7484 12.3776 15.0244 9.62952 15.0244C6.88154 15.0244 4.65381 12.7484 4.65381 9.94075C4.65381 7.13307 6.88154 4.85703 9.62952 4.85703C12.3776 4.85703 14.6053 7.13307 14.6053 9.94075Z" stroke="white" stroke-width="1.69922" stroke-miterlimit="10"/>
<path d="M2.22504 24.1152C1.3773 24.1152 0.72406 23.3344 0.875404 22.4821C1.62838 18.241 5.26137 15.0248 9.62961 15.0248C13.9978 15.0248 17.6308 18.241 18.3838 22.4821C18.5351 23.3344 17.8819 24.1152 17.0341 24.1152H2.22504Z" stroke="white" stroke-width="1.69922" stroke-miterlimit="10"/>
<path d="M25.2123 9.2344C25.2123 11.4078 23.4878 13.1697 21.3605 13.1697C19.2333 13.1697 17.5088 11.4078 17.5088 9.2344C17.5088 7.06105 19.2333 5.29913 21.3605 5.29913C23.4878 5.29913 25.2123 7.06105 25.2123 9.2344Z" stroke="white" stroke-width="1.69922" stroke-miterlimit="10"/>
<path d="M15.2109 17.0358C16.346 14.7425 18.6738 13.1702 21.361 13.1702C24.7424 13.1702 27.5547 15.6598 28.1376 18.9429C28.2548 19.6026 27.7491 20.207 27.0928 20.207H17.665" stroke="white" stroke-width="1.69922" stroke-miterlimit="10"/>
</g>
</svg>
