<svg width="30" height="30" viewBox="0 0 30 30" fill="none" xmlns="http://www.w3.org/2000/svg">
<path d="M10.2235 6.16288C10.1478 6.00182 10.0278 5.86564 9.87758 5.77025C9.72734 5.67486 9.55305 5.62421 9.37508 5.62421C9.19712 5.62421 9.02283 5.67486 8.87259 5.77025C8.72234 5.86564 8.60236 6.00182 8.52665 6.16288L1.02665 22.1004C0.974247 22.2118 0.944305 22.3324 0.938531 22.4554C0.932758 22.5784 0.951265 22.7014 0.992997 22.8172C1.07728 23.0511 1.25104 23.242 1.47606 23.3478C1.70108 23.4537 1.95892 23.4658 2.19287 23.3815C2.42681 23.2972 2.6177 23.1234 2.72352 22.8984L4.67587 18.75H14.0743L16.0266 22.8984C16.079 23.0098 16.1529 23.1099 16.2439 23.1927C16.335 23.2756 16.4415 23.3398 16.5573 23.3815C16.6731 23.4232 16.7961 23.4417 16.9191 23.436C17.042 23.4302 17.1627 23.4002 17.2741 23.3478C17.3855 23.2954 17.4855 23.2216 17.5684 23.1306C17.6513 23.0395 17.7154 22.933 17.7572 22.8172C17.7989 22.7014 17.8174 22.5784 17.8116 22.4554C17.8059 22.3324 17.7759 22.2118 17.7235 22.1004L10.2235 6.16288ZM5.55829 16.875L9.37508 8.76445L13.1919 16.875H5.55829ZM23.4376 11.25C21.9423 11.25 20.7739 11.6566 19.9653 12.4594C19.796 12.6358 19.7024 12.8715 19.7044 13.116C19.7064 13.3606 19.8039 13.5946 19.976 13.7683C20.1482 13.942 20.3814 14.0415 20.6259 14.0457C20.8704 14.0499 21.1069 13.9583 21.2849 13.7906C21.7302 13.3488 22.4567 13.125 23.4376 13.125C24.988 13.125 26.2501 14.1797 26.2501 15.4687V15.8461C25.4181 15.2895 24.4386 14.9948 23.4376 15C20.8524 15 18.7501 16.8926 18.7501 19.2187C18.7501 21.5449 20.8524 23.4375 23.4376 23.4375C24.4389 23.4419 25.4186 23.1459 26.2501 22.5879C26.2617 22.8365 26.3717 23.0703 26.5557 23.2379C26.7398 23.4055 26.9829 23.4931 27.2315 23.4814C27.4802 23.4698 27.714 23.3598 27.8816 23.1758C28.0491 22.9917 28.1367 22.7486 28.1251 22.5V15.4687C28.1251 13.1426 26.0227 11.25 23.4376 11.25ZM23.4376 21.5625C21.8872 21.5625 20.6251 20.5078 20.6251 19.2187C20.6251 17.9297 21.8872 16.875 23.4376 16.875C24.988 16.875 26.2501 17.9297 26.2501 19.2187C26.2501 20.5078 24.988 21.5625 23.4376 21.5625Z" fill="white"/>
</svg>
