<svg width="28" height="28" viewBox="0 0 28 28" fill="none" xmlns="http://www.w3.org/2000/svg">
<path d="M14.0003 0.666626C6.62699 0.666626 0.666992 6.62663 0.666992 14C0.666992 21.3733 6.62699 27.3333 14.0003 27.3333C17.5365 27.3333 20.9279 25.9285 23.4284 23.4281C25.9289 20.9276 27.3337 17.5362 27.3337 14C27.3337 6.62663 21.3337 0.666626 14.0003 0.666626ZM9.84033 8.42663L12.667 11.2533L11.2537 12.6666L9.84033 11.2533L8.42699 12.6666L7.01366 11.2533L9.84033 8.42663ZM14.0003 21.3333C10.8937 21.3333 8.25366 19.3866 7.18699 16.6666H20.8137C19.747 19.3866 17.107 21.3333 14.0003 21.3333ZM19.5737 12.6666L18.1603 11.2533L16.747 12.6666L15.3337 11.2533L18.1603 8.42663L20.987 11.2533L19.5737 12.6666Z" fill="#4A3C8C" fill-opacity="0.29"/>
</svg>
