<svg width="16" height="16" viewBox="0 0 16 16" fill="none" xmlns="http://www.w3.org/2000/svg">
<path fill-rule="evenodd" clip-rule="evenodd" d="M7.99967 6.66675C8.73605 6.66675 9.33301 7.2637 9.33301 8.00008C9.33301 8.73646 8.73605 9.33341 7.99967 9.33341C7.26329 9.33341 6.66634 8.73646 6.66634 8.00008C6.66634 7.2637 7.26329 6.66675 7.99967 6.66675Z" fill="white"/>
<path fill-rule="evenodd" clip-rule="evenodd" d="M12.6667 6.66675C13.403 6.66675 14 7.2637 14 8.00008C14 8.73646 13.403 9.33341 12.6667 9.33341C11.9303 9.33341 11.3333 8.73646 11.3333 8.00008C11.3333 7.2637 11.9303 6.66675 12.6667 6.66675Z" fill="white"/>
<path fill-rule="evenodd" clip-rule="evenodd" d="M3.33366 6.66675C4.07004 6.66675 4.66699 7.2637 4.66699 8.00008C4.66699 8.73646 4.07004 9.33341 3.33366 9.33341C2.59728 9.33341 2.00033 8.73646 2.00033 8.00008C2.00033 7.2637 2.59728 6.66675 3.33366 6.66675Z" fill="white"/>
</svg>
